<svg width="40" height="40" viewBox="0 0 40 40" fill="none" xmlns="http://www.w3.org/2000/svg">
<path d="M28.9026 9.1026C28.507 9.1026 28.1204 9.2199 27.7915 9.43967C27.4626 9.65943 27.2062 9.97179 27.0548 10.3372C26.9035 10.7027 26.8639 11.1048 26.941 11.4928C27.0182 11.8807 27.2087 12.2371 27.4884 12.5168C27.7681 12.7965 28.1245 12.987 28.5124 13.0642C28.9004 13.1413 29.3025 13.1017 29.668 12.9504C30.0334 12.799 30.3458 12.5426 30.5655 12.2137C30.7853 11.8848 30.9026 11.4982 30.9026 11.1026C30.9026 10.5722 30.6919 10.0635 30.3168 9.68839C29.9417 9.31332 29.433 9.1026 28.9026 9.1026ZM36.5693 13.1359C36.5369 11.7531 36.2779 10.3849 35.8026 9.08594C35.3788 7.97449 34.7192 6.96807 33.8693 6.13594C33.044 5.28165 32.0352 4.62623 30.9193 4.21927C29.6237 3.72954 28.254 3.46462 26.8693 3.43594C25.1026 3.33594 24.5359 3.33594 20.0026 3.33594C15.4693 3.33594 14.9026 3.33594 13.1359 3.43594C11.7512 3.46462 10.3815 3.72954 9.08594 4.21927C7.97206 4.63035 6.96416 5.28521 6.13594 6.13594C5.28165 6.96123 4.62623 7.97 4.21927 9.08594C3.72954 10.3815 3.46462 11.7512 3.43594 13.1359C3.33594 14.9026 3.33594 15.4693 3.33594 20.0026C3.33594 24.5359 3.33594 25.1026 3.43594 26.8693C3.46462 28.254 3.72954 29.6237 4.21927 30.9193C4.62623 32.0352 5.28165 33.044 6.13594 33.8693C6.96416 34.72 7.97206 35.3749 9.08594 35.7859C10.3815 36.2757 11.7512 36.5406 13.1359 36.5693C14.9026 36.6693 15.4693 36.6693 20.0026 36.6693C24.5359 36.6693 25.1026 36.6693 26.8693 36.5693C28.254 36.5406 29.6237 36.2757 30.9193 35.7859C32.0352 35.379 33.044 34.7236 33.8693 33.8693C34.723 33.0402 35.3832 32.0329 35.8026 30.9193C36.2779 29.6203 36.5369 28.2521 36.5693 26.8693C36.5693 25.1026 36.6693 24.5359 36.6693 20.0026C36.6693 15.4693 36.6693 14.9026 36.5693 13.1359ZM33.5693 26.6693C33.5571 27.7272 33.3655 28.7754 33.0026 29.7693C32.7365 30.4946 32.3091 31.15 31.7526 31.6859C31.212 32.2368 30.558 32.6633 29.8359 32.9359C28.8421 33.2989 27.7939 33.4905 26.7359 33.5026C25.0693 33.5859 24.4526 33.6026 20.0693 33.6026C15.6859 33.6026 15.0693 33.6026 13.4026 33.5026C12.3041 33.5232 11.2103 33.354 10.1693 33.0026C9.47891 32.7161 8.85486 32.2906 8.33594 31.7526C7.78275 31.2172 7.36068 30.5613 7.1026 29.8359C6.6957 28.8279 6.47001 27.7558 6.43594 26.6693C6.43594 25.0026 6.33594 24.3859 6.33594 20.0026C6.33594 15.6193 6.33594 15.0026 6.43594 13.3359C6.44341 12.2544 6.64085 11.1825 7.01927 10.1693C7.31268 9.46579 7.76305 8.8387 8.33594 8.33594C8.84229 7.76288 9.46808 7.30776 10.1693 7.0026C11.1852 6.63601 12.2559 6.4444 13.3359 6.43594C15.0026 6.43594 15.6193 6.33594 20.0026 6.33594C24.3859 6.33594 25.0026 6.33594 26.6693 6.43594C27.7272 6.44807 28.7754 6.63968 29.7693 7.0026C30.5267 7.28369 31.2064 7.74068 31.7526 8.33594C32.2988 8.8479 32.7255 9.47382 33.0026 10.1693C33.373 11.1842 33.5648 12.2556 33.5693 13.3359C33.6526 15.0026 33.6693 15.6193 33.6693 20.0026C33.6693 24.3859 33.6526 25.0026 33.5693 26.6693ZM20.0026 11.4526C18.3123 11.4559 16.6609 11.9601 15.257 12.9016C13.8532 13.8431 12.7599 15.1796 12.1153 16.7422C11.4708 18.3048 11.3038 20.0234 11.6356 21.6808C11.9674 23.3383 12.783 24.8602 13.9794 26.0542C15.1758 27.2483 16.6993 28.061 18.3574 28.3895C20.0154 28.7181 21.7337 28.5478 23.2951 27.9002C24.8564 27.2525 26.1907 26.1567 27.1295 24.751C28.0682 23.3453 28.5693 21.6929 28.5693 20.0026C28.5715 18.8778 28.3513 17.7636 27.9213 16.7242C27.4914 15.6848 26.8602 14.7406 26.0641 13.946C25.2679 13.1514 24.3225 12.5221 23.2823 12.0942C22.242 11.6662 21.1274 11.4482 20.0026 11.4526ZM20.0026 25.5526C18.9049 25.5526 17.8319 25.2271 16.9192 24.6173C16.0065 24.0074 15.2951 23.1406 14.8751 22.1265C14.455 21.1124 14.3451 19.9964 14.5592 18.9199C14.7734 17.8433 15.302 16.8543 16.0782 16.0782C16.8543 15.302 17.8433 14.7734 18.9199 14.5592C19.9964 14.3451 21.1124 14.455 22.1265 14.8751C23.1406 15.2951 24.0074 16.0065 24.6173 16.9192C25.2271 17.8319 25.5526 18.9049 25.5526 20.0026C25.5526 20.7314 25.409 21.4531 25.1301 22.1265C24.8512 22.7999 24.4424 23.4117 23.927 23.927C23.4117 24.4424 22.7999 24.8512 22.1265 25.1301C21.4531 25.409 20.7314 25.5526 20.0026 25.5526Z" fill="black"/>
</svg>
