<svg width="40" height="40" viewBox="0 0 40 40" fill="none" xmlns="http://www.w3.org/2000/svg">
<path fill-rule="evenodd" clip-rule="evenodd" d="M5.50269 18.5C5.50269 12.7883 12.3409 7 20.0026 7C27.6643 7 34.5027 13.455 34.5027 19.1667C34.5027 21.975 32.231 25.4933 29.5027 28C27.2194 30.0967 22.8127 33.3683 19.7876 34C19.6918 33.2826 19.0082 31.8223 18.602 31.2233C17.997 30.365 16.7277 29.865 15.5027 29.65C9.27435 28.5633 5.50269 23.3333 5.50269 18.5ZM20.0026 5C11.0959 5 3.33594 11.0717 3.33594 19.1667C3.33594 26.2333 9.25094 31.01 16.3826 32.2533C16.9943 32.36 17.1476 32.73 17.2043 33.3117C17.2826 34.0883 17.1126 34.9183 17.4593 35.645C17.8743 36.515 18.8976 36.9033 19.7876 36.5467C24.0726 34.8333 28.2259 32.5083 31.3376 29.65C34.4426 26.8 36.6693 23.2617 36.6693 19.1667C36.6693 11.0717 28.9093 5 20.0026 5ZM20.4493 15.6C20.23 15.337 19.935 15.148 19.6045 15.0586C19.274 14.9692 18.9239 14.9837 18.602 15.1003C18.28 15.2168 18.0018 15.4297 17.8051 15.71C17.6084 15.9902 17.5028 16.3243 17.5026 16.6667V21.6667C17.5026 22.1087 17.6782 22.5326 17.9908 22.8452C18.3033 23.1577 18.7272 23.3333 19.1693 23.3333C19.6113 23.3333 20.0352 23.1577 20.3478 22.8452C20.6603 22.5326 20.8359 22.1087 20.8359 21.6667V21.27L22.0559 22.7333C22.2752 22.9963 22.5702 23.1853 22.9007 23.2748C23.2312 23.3642 23.5813 23.3496 23.9032 23.2331C24.2252 23.1165 24.5034 22.9036 24.7001 22.6234C24.8968 22.3431 25.0024 22.0091 25.0026 21.6667V16.6667C25.0026 16.2246 24.827 15.8007 24.5144 15.4882C24.2019 15.1756 23.778 15 23.3359 15C22.8939 15 22.47 15.1756 22.1574 15.4882C21.8449 15.8007 21.6693 16.2246 21.6693 16.6667V17.0633L20.4493 15.6ZM11.6693 16.6667C11.6693 16.2246 11.4937 15.8007 11.1811 15.4882C10.8686 15.1756 10.4446 15 10.0026 15C9.56058 15 9.13665 15.1756 8.82409 15.4882C8.51153 15.8007 8.33594 16.2246 8.33594 16.6667V21.6667C8.33594 22.1087 8.51153 22.5326 8.82409 22.8452C9.13665 23.1577 9.56058 23.3333 10.0026 23.3333H11.6693C12.1113 23.3333 12.5352 23.1577 12.8478 22.8452C13.1603 22.5326 13.3359 22.1087 13.3359 21.6667C13.3359 21.2246 13.1603 20.8007 12.8478 20.4882C12.5352 20.1756 12.1113 20 11.6693 20V16.6667ZM15.0026 15C15.4446 15 15.8686 15.1756 16.1811 15.4882C16.4937 15.8007 16.6693 16.2246 16.6693 16.6667V21.6667C16.6693 22.1087 16.4937 22.5326 16.1811 22.8452C15.8686 23.1577 15.4446 23.3333 15.0026 23.3333C14.5606 23.3333 14.1367 23.1577 13.8241 22.8452C13.5115 22.5326 13.3359 22.1087 13.3359 21.6667V16.6667C13.3359 16.2246 13.5115 15.8007 13.8241 15.4882C14.1367 15.1756 14.5606 15 15.0026 15ZM30.0026 18.3333H29.7793C29.9255 18.5867 30.0026 18.8741 30.0026 19.1667C30.0026 19.4592 29.9255 19.7466 29.7793 20H30.0026C30.4446 20 30.8686 20.1756 31.1811 20.4882C31.4937 20.8007 31.6693 21.2246 31.6693 21.6667C31.6693 22.1087 31.4937 22.5326 31.1811 22.8452C30.8686 23.1577 30.4446 23.3333 30.0026 23.3333H27.5026C27.0606 23.3333 26.6367 23.1577 26.3241 22.8452C26.0115 22.5326 25.8359 22.1087 25.8359 21.6667V16.6667C25.8359 16.2246 26.0115 15.8007 26.3241 15.4882C26.6367 15.1756 27.0606 15 27.5026 15H30.0026C30.4446 15 30.8686 15.1756 31.1811 15.4882C31.4937 15.8007 31.6693 16.2246 31.6693 16.6667C31.6693 17.1087 31.4937 17.5326 31.1811 17.8452C30.8686 18.1577 30.4446 18.3333 30.0026 18.3333Z" fill="black"/>
</svg>
