<svg width="40" height="40" viewBox="0 0 40 40" fill="none" xmlns="http://www.w3.org/2000/svg">
<path d="M31.7498 8.18311C30.2218 6.63965 28.4018 5.41589 26.3959 4.58319C24.39 3.7505 22.2384 3.32554 20.0665 3.33311C10.9665 3.33311 3.54984 10.7498 3.54984 19.8498C3.54984 22.7664 4.3165 25.5998 5.74984 28.0998L3.4165 36.6664L12.1665 34.3664C14.5832 35.6831 17.2998 36.3831 20.0665 36.3831C29.1665 36.3831 36.5832 28.9664 36.5832 19.8664C36.5832 15.4498 34.8665 11.2998 31.7498 8.18311ZM20.0665 33.5831C17.5998 33.5831 15.1832 32.9164 13.0665 31.6664L12.5665 31.3664L7.3665 32.7331L8.74984 27.6664L8.4165 27.1498C7.04608 24.9614 6.3184 22.4318 6.3165 19.8498C6.3165 12.2831 12.4832 6.11644 20.0498 6.11644C23.7165 6.11644 27.1665 7.54977 29.7498 10.1498C31.029 11.423 32.0427 12.9375 32.7322 14.6055C33.4216 16.2734 33.7732 18.0616 33.7665 19.8664C33.7998 27.4331 27.6332 33.5831 20.0665 33.5831ZM27.5998 23.3164C27.1832 23.1164 25.1498 22.1164 24.7832 21.9664C24.3998 21.8331 24.1332 21.7664 23.8498 22.1664C23.5665 22.5831 22.7832 23.5164 22.5498 23.7831C22.3165 24.0664 22.0665 24.0998 21.6498 23.8831C21.2332 23.6831 19.8998 23.2331 18.3332 21.8331C17.0998 20.7331 16.2832 19.3831 16.0332 18.9664C15.7998 18.5498 15.9998 18.3331 16.2165 18.1164C16.3998 17.9331 16.6332 17.6331 16.8332 17.3998C17.0332 17.1664 17.1165 16.9831 17.2498 16.7164C17.3832 16.4331 17.3165 16.1998 17.2165 15.9998C17.1165 15.7998 16.2832 13.7664 15.9498 12.9331C15.6165 12.1331 15.2665 12.2331 15.0165 12.2164H14.2165C13.9332 12.2164 13.4998 12.3164 13.1165 12.7331C12.7498 13.1498 11.6832 14.1498 11.6832 16.1831C11.6832 18.2164 13.1665 20.1831 13.3665 20.4498C13.5665 20.7331 16.2832 24.8998 20.4165 26.6831C21.3998 27.1164 22.1665 27.3664 22.7665 27.5498C23.7498 27.8664 24.6498 27.8164 25.3665 27.7164C26.1665 27.5998 27.8165 26.7164 28.1498 25.7498C28.4998 24.7831 28.4998 23.9664 28.3832 23.7831C28.2665 23.5998 28.0165 23.5164 27.5998 23.3164Z" fill="black"/>
</svg>
