<svg width="40" height="40" viewBox="0 0 40 40" fill="none" xmlns="http://www.w3.org/2000/svg">
<path d="M37.5 19.8945C37.5 19.8086 37.5 19.7109 37.4961 19.5977C37.4922 19.2812 37.4844 18.9258 37.4766 18.5469C37.4453 17.457 37.3906 16.3711 37.3047 15.3477C37.1875 13.9375 37.0156 12.7617 36.7812 11.8789C36.5339 10.9576 36.0491 10.1174 35.3753 9.44217C34.7014 8.76697 33.8622 8.28045 32.9414 8.03125C31.8359 7.73437 29.6719 7.55078 26.625 7.4375C25.1758 7.38281 23.625 7.34766 22.0742 7.32812C21.5312 7.32031 21.0273 7.31641 20.5742 7.3125H19.4258C18.9727 7.31641 18.4688 7.32031 17.9258 7.32812C16.375 7.34766 14.8242 7.38281 13.375 7.4375C10.3281 7.55469 8.16016 7.73828 7.05859 8.03125C6.1375 8.27984 5.29793 8.76615 4.624 9.44145C3.95007 10.1167 3.46547 10.9573 3.21875 11.8789C2.98047 12.7617 2.8125 13.9375 2.69531 15.3477C2.60938 16.3711 2.55469 17.457 2.52344 18.5469C2.51172 18.9258 2.50781 19.2812 2.50391 19.5977C2.50391 19.7109 2.5 19.8086 2.5 19.8945V20.1133C2.5 20.1992 2.5 20.2969 2.50391 20.4102C2.50781 20.7266 2.51562 21.082 2.52344 21.4609C2.55469 22.5508 2.60938 23.6367 2.69531 24.6602C2.8125 26.0703 2.98438 27.2461 3.21875 28.1289C3.71875 30 5.1875 31.4766 7.05859 31.9766C8.16016 32.2734 10.3281 32.457 13.375 32.5703C14.8242 32.625 16.375 32.6602 17.9258 32.6797C18.4688 32.6875 18.9727 32.6914 19.4258 32.6953H20.5742C21.0273 32.6914 21.5312 32.6875 22.0742 32.6797C23.625 32.6602 25.1758 32.625 26.625 32.5703C29.6719 32.4531 31.8398 32.2695 32.9414 31.9766C34.8125 31.4766 36.2812 30.0039 36.7812 28.1289C37.0195 27.2461 37.1875 26.0703 37.3047 24.6602C37.3906 23.6367 37.4453 22.5508 37.4766 21.4609C37.4883 21.082 37.4922 20.7266 37.4961 20.4102C37.4961 20.2969 37.5 20.1992 37.5 20.1133V19.8945ZM34.6875 20.0977C34.6875 20.1797 34.6875 20.2695 34.6836 20.375C34.6797 20.6797 34.6719 21.0156 34.6641 21.3789C34.6367 22.418 34.582 23.457 34.5 24.4219C34.3945 25.6797 34.2461 26.7109 34.0625 27.4023C33.8203 28.3047 33.1094 29.0195 32.2109 29.2578C31.3906 29.4766 29.3242 29.6523 26.5156 29.7578C25.0938 29.8125 23.5625 29.8477 22.0352 29.8672C21.5 29.875 21.0039 29.8789 20.5586 29.8789H19.4414L17.9648 29.8672C16.4375 29.8477 14.9102 29.8125 13.4844 29.7578C10.6758 29.6484 8.60547 29.4766 7.78906 29.2578C6.89062 29.0156 6.17969 28.3047 5.9375 27.4023C5.75391 26.7109 5.60547 25.6797 5.5 24.4219C5.41797 23.457 5.36719 22.418 5.33594 21.3789C5.32422 21.0156 5.32031 20.6758 5.31641 20.375C5.31641 20.2695 5.3125 20.1758 5.3125 20.0977V19.9102C5.3125 19.8281 5.3125 19.7383 5.31641 19.6328C5.32031 19.3281 5.32813 18.9922 5.33594 18.6289C5.36328 17.5898 5.41797 16.5508 5.5 15.5859C5.60547 14.3281 5.75391 13.2969 5.9375 12.6055C6.17969 11.7031 6.89062 10.9883 7.78906 10.75C8.60938 10.5312 10.6758 10.3555 13.4844 10.25C14.9063 10.1953 16.4375 10.1602 17.9648 10.1406C18.5 10.1328 18.9961 10.1289 19.4414 10.1289H20.5586L22.0352 10.1406C23.5625 10.1602 25.0898 10.1953 26.5156 10.25C29.3242 10.3594 31.3945 10.5312 32.2109 10.75C33.1094 10.9922 33.8203 11.7031 34.0625 12.6055C34.2461 13.2969 34.3945 14.3281 34.5 15.5859C34.582 16.5508 34.6328 17.5898 34.6641 18.6289C34.6758 18.9922 34.6797 19.332 34.6836 19.6328C34.6836 19.7383 34.6875 19.832 34.6875 19.9102V20.0977ZM16.5234 25.2383L25.5859 19.9648L16.5234 14.7695V25.2383Z" fill="black"/>
</svg>
