<svg width="40" height="40" viewBox="0 0 40 40" fill="none" xmlns="http://www.w3.org/2000/svg">
<g clip-path="url(#clip0_759_34525)">
<path d="M35.5521 6.66406H4.44097C3.8516 6.66406 3.28637 6.89819 2.86962 7.31494C2.45288 7.73168 2.21875 8.29691 2.21875 8.88628V31.1085C2.21875 31.6979 2.45288 32.2631 2.86962 32.6799C3.28637 33.0966 3.8516 33.3307 4.44097 33.3307H35.5521C36.1415 33.3307 36.7067 33.0966 37.1234 32.6799C37.5402 32.2631 37.7743 31.6979 37.7743 31.1085V8.88628C37.7743 8.29691 37.5402 7.73168 37.1234 7.31494C36.7067 6.89819 36.1415 6.66406 35.5521 6.66406ZM33.841 31.1085H6.28542L14.0632 23.0641L12.4632 21.5196L4.44097 29.8196V10.5752L18.2521 24.3196C18.6684 24.7335 19.2317 24.9658 19.8188 24.9658C20.4058 24.9658 20.9691 24.7335 21.3854 24.3196L35.5521 10.2307V29.6752L27.3743 21.4974L25.8076 23.0641L33.841 31.1085ZM5.89653 8.88628H33.7521L19.8188 22.7418L5.89653 8.88628Z" fill="black"/>
</g>
<defs>
<clipPath id="clip0_759_34525">
<rect width="40" height="40" fill="white"/>
</clipPath>
</defs>
</svg>
