<svg width="35" height="35" viewBox="0 0 35 35" fill="none" xmlns="http://www.w3.org/2000/svg">
<rect width="35" height="35" rx="4" fill="#868A95"/>
<rect x="1" y="1" width="33" height="33" rx="3" stroke="#868A95" stroke-width="2"/>
<path fill-rule="evenodd" clip-rule="evenodd" d="M29.4662 9.90354C29.7396 10.177 29.8932 10.5479 29.8932 10.9346C29.8932 11.3213 29.7396 11.6921 29.4662 11.9656L15.6121 25.8198C15.3386 26.0932 14.9677 26.2468 14.581 26.2468C14.1943 26.2468 13.8235 26.0932 13.55 25.8198L6.9875 19.2573C6.72185 18.9822 6.57486 18.6139 6.57818 18.2315C6.5815 17.8491 6.73487 17.4834 7.00526 17.213C7.27565 16.9426 7.64142 16.7892 8.02379 16.7859C8.40616 16.7826 8.77453 16.9296 9.04958 17.1952L14.581 22.7267L27.4042 9.90354C27.6776 9.63015 28.0485 9.47656 28.4352 9.47656C28.8219 9.47656 29.1928 9.63015 29.4662 9.90354Z" fill="white"/>
</svg>
