<svg width="35" height="35" viewBox="0 0 35 35" fill="none" xmlns="http://www.w3.org/2000/svg">
<path d="M10.4375 12.375C10.1889 12.375 9.9504 12.4738 9.77459 12.6496C9.59877 12.8254 9.5 13.0639 9.5 13.3125C9.5 13.5611 9.59877 13.7996 9.77459 13.9754C9.9504 14.1512 10.1889 14.25 10.4375 14.25H16.0625C16.3111 14.25 16.5496 14.1512 16.7254 13.9754C16.9012 13.7996 17 13.5611 17 13.3125C17 13.0639 16.9012 12.8254 16.7254 12.6496C16.5496 12.4738 16.3111 12.375 16.0625 12.375H10.4375ZM9.5 17.0625C9.5 16.8139 9.59877 16.5754 9.77459 16.3996C9.9504 16.2238 10.1889 16.125 10.4375 16.125H21.6875C21.9361 16.125 22.1746 16.2238 22.3504 16.3996C22.5262 16.5754 22.625 16.8139 22.625 17.0625C22.625 17.3111 22.5262 17.5496 22.3504 17.7254C22.1746 17.9012 21.9361 18 21.6875 18H10.4375C10.1889 18 9.9504 17.9012 9.77459 17.7254C9.59877 17.5496 9.5 17.3111 9.5 17.0625ZM10.4375 19.875C10.1889 19.875 9.9504 19.9738 9.77459 20.1496C9.59877 20.3254 9.5 20.5639 9.5 20.8125C9.5 21.0611 9.59877 21.2996 9.77459 21.4754C9.9504 21.6512 10.1889 21.75 10.4375 21.75H17.9375C18.1861 21.75 18.4246 21.6512 18.6004 21.4754C18.7762 21.2996 18.875 21.0611 18.875 20.8125C18.875 20.5639 18.7762 20.3254 18.6004 20.1496C18.4246 19.9738 18.1861 19.875 17.9375 19.875H10.4375ZM7.625 8.625C6.63044 8.625 5.67661 9.02009 4.97335 9.72335C4.27009 10.4266 3.875 11.3804 3.875 12.375V23.625C3.875 24.6196 4.27009 25.5734 4.97335 26.2766C5.67661 26.9799 6.63044 27.375 7.625 27.375H26.375C27.3696 27.375 28.3234 26.9799 29.0266 26.2766C29.7299 25.5734 30.125 24.6196 30.125 23.625V12.375C30.125 11.3804 29.7299 10.4266 29.0266 9.72335C28.3234 9.02009 27.3696 8.625 26.375 8.625H7.625ZM5.75 12.375C5.75 11.8777 5.94754 11.4008 6.29917 11.0492C6.65081 10.6975 7.12772 10.5 7.625 10.5H26.375C26.8723 10.5 27.3492 10.6975 27.7008 11.0492C28.0525 11.4008 28.25 11.8777 28.25 12.375V23.625C28.25 24.1223 28.0525 24.5992 27.7008 24.9508C27.3492 25.3025 26.8723 25.5 26.375 25.5H7.625C7.12772 25.5 6.65081 25.3025 6.29917 24.9508C5.94754 24.5992 5.75 24.1223 5.75 23.625V12.375Z" fill="#F7F7F7"/>
</svg>
