<svg width="35" height="35" viewBox="0 0 35 35" fill="none" xmlns="http://www.w3.org/2000/svg">
<path d="M14.5 20.75L20.9875 17L14.5 13.25V20.75ZM28.95 10.9625C29.1125 11.55 29.225 12.3375 29.3 13.3375C29.3875 14.3375 29.425 15.2 29.425 15.95L29.5 17C29.5 19.7375 29.3 21.75 28.95 23.0375C28.6375 24.1625 27.9125 24.8875 26.7875 25.2C26.2 25.3625 25.125 25.475 23.475 25.55C21.85 25.6375 20.3625 25.675 18.9875 25.675L17 25.75C11.7625 25.75 8.5 25.55 7.2125 25.2C6.0875 24.8875 5.3625 24.1625 5.05 23.0375C4.8875 22.45 4.775 21.6625 4.7 20.6625C4.6125 19.6625 4.575 18.8 4.575 18.05L4.5 17C4.5 14.2625 4.7 12.25 5.05 10.9625C5.3625 9.8375 6.0875 9.1125 7.2125 8.8C7.8 8.6375 8.875 8.525 10.525 8.45C12.15 8.3625 13.6375 8.325 15.0125 8.325L17 8.25C22.2375 8.25 25.5 8.45 26.7875 8.8C27.9125 9.1125 28.6375 9.8375 28.95 10.9625Z" fill="#F7F7F7"/>
</svg>
