<svg width="65" height="60" viewBox="0 0 65 60" fill="none" xmlns="http://www.w3.org/2000/svg">
<path d="M62.9698 15.003C62.9721 13.5581 62.5221 12.1433 61.6741 10.9289C60.826 9.71438 59.616 8.75188 58.1894 8.15709C56.7628 7.56231 55.1805 7.36056 53.6327 7.57612C52.0849 7.79168 50.6375 8.41536 49.4646 9.37216C48.8295 9.88921 48.2852 10.4941 47.851 11.1651V11.1722C47.7824 11.2776 47.7177 11.3854 47.6542 11.4933L47.6237 11.5507C47.5704 11.6433 47.5209 11.737 47.4727 11.8319C47.4574 11.8612 47.4435 11.8905 47.4295 11.9198C47.3876 12.0054 47.347 12.0921 47.3089 12.18C47.2924 12.2163 47.2771 12.2526 47.2619 12.289C47.2276 12.371 47.1946 12.453 47.1629 12.5362L47.1172 12.6604C47.0893 12.7401 47.0626 12.821 47.0372 12.9019C47.022 12.9476 47.008 12.9921 46.9953 13.0378C46.9712 13.1163 46.9509 13.196 46.9306 13.2722C46.9179 13.3202 46.9052 13.3683 46.8938 13.4163C46.876 13.496 46.8595 13.5769 46.8442 13.6507C46.8341 13.6999 46.8239 13.7491 46.815 13.7983C46.8011 13.8804 46.7896 13.9636 46.7782 14.0468C46.7719 14.0948 46.7643 14.1429 46.7579 14.1921C46.7478 14.2823 46.7414 14.3726 46.7338 14.464C46.7338 14.5061 46.7262 14.5483 46.7236 14.5905C46.716 14.7241 46.7109 14.8577 46.7109 14.9936C46.7109 15.1108 46.7109 15.228 46.7211 15.3382V15.4132C46.7279 15.5233 46.7368 15.6335 46.7478 15.7436L46.7554 15.7999C46.7668 15.8995 46.7795 15.9979 46.796 16.0952C46.796 16.1151 46.796 16.1362 46.8049 16.1561C46.8227 16.2628 46.8442 16.3683 46.8671 16.4737C46.8671 16.4995 46.8785 16.5241 46.8836 16.5499C46.9064 16.6507 46.9318 16.7515 46.9598 16.8511V16.8733C46.989 16.9776 47.0207 17.0796 47.055 17.1815L47.0816 17.2612C47.1159 17.3608 47.1515 17.4581 47.1896 17.5554C47.1972 17.5765 47.2061 17.5976 47.2149 17.6186C47.2492 17.7018 47.2848 17.7851 47.3216 17.8671C47.3317 17.8917 47.3419 17.9151 47.3533 17.9386C47.3965 18.0311 47.4409 18.1237 47.4879 18.2151L47.5298 18.2936C47.5742 18.3757 47.6187 18.4577 47.6656 18.5386C48.3283 19.6754 49.2961 20.6362 50.4764 21.3288C50.7861 21.5116 51.1094 21.6741 51.4437 21.8151L51.4933 21.8362C51.7184 21.93 51.9482 22.0144 52.1826 22.0894L52.3032 22.1268L52.4937 22.1819C52.5508 22.1983 52.6079 22.2124 52.6663 22.2276L52.9101 22.2862L53.1297 22.3331L53.2757 22.3601L53.508 22.3987L53.6273 22.4163C53.7416 22.4315 53.8571 22.4456 53.9727 22.4573L54.0704 22.4655C54.1631 22.4726 54.257 22.4796 54.351 22.4843L54.4602 22.4901C54.5871 22.4901 54.7064 22.4995 54.8309 22.4995C54.9781 22.4995 55.1228 22.4995 55.2676 22.4878L55.4047 22.4784C55.5037 22.4714 55.6015 22.4655 55.6992 22.4561L55.8579 22.4374C55.9468 22.4269 56.0369 22.4163 56.1258 22.4034L56.2857 22.3765C56.3721 22.3624 56.4597 22.3472 56.5396 22.3308L56.6958 22.2968C56.7821 22.278 56.8685 22.2593 56.9497 22.237C56.9992 22.2253 57.0475 22.2124 57.097 22.1983C57.1846 22.1749 57.2722 22.1503 57.3585 22.1245L57.4931 22.0823C57.5832 22.053 57.6721 22.0226 57.7609 21.9909L57.879 21.9476C57.9742 21.9124 58.0682 21.8749 58.1608 21.8362L58.2561 21.7964C58.3589 21.7519 58.4604 21.7061 58.5607 21.6569L58.6229 21.6288C58.7397 21.5702 58.8565 21.5116 58.9708 21.4472H58.9784C59.7113 21.0495 60.3726 20.549 60.9386 19.9636C62.2495 18.5947 62.9721 16.8301 62.9698 15.003Z" fill="#A11818"/>
<path d="M47.1479 23.734L33.7467 33.3551C33.3902 33.6109 32.9515 33.7498 32.5 33.7498C32.0485 33.7498 31.6098 33.6109 31.2533 33.3551L12.9721 20.2301C12.7573 20.0804 12.5769 19.8927 12.4413 19.6781C12.3058 19.4634 12.2178 19.2261 12.1825 18.9798C12.1472 18.7335 12.1653 18.4831 12.2357 18.2433C12.3061 18.0035 12.4274 17.779 12.5926 17.5829C12.7578 17.3868 12.9636 17.2229 13.198 17.1008C13.4324 16.9787 13.6908 16.9008 13.9581 16.8717C14.2254 16.8426 14.4963 16.8628 14.7551 16.9312C15.0138 16.9995 15.2553 17.1147 15.4654 17.2699L32.5 29.4996L44.4615 20.9121C43.3041 19.1838 42.6763 17.1981 42.6447 15.1664C42.6132 13.1347 43.1792 11.1332 44.2825 9.375H11.1719C9.28697 9.37686 7.47984 10.0689 6.14701 11.2992C4.81419 12.5295 4.06452 14.1976 4.0625 15.9375V44.0625C4.06452 45.8024 4.81419 47.4705 6.14701 48.7008C7.47984 49.9311 9.28697 50.6231 11.1719 50.625H53.8281C55.713 50.6231 57.5202 49.9311 58.853 48.7008C60.1858 47.4705 60.9355 45.8024 60.9375 44.0625V24.7488C58.7992 25.8921 56.3345 26.4074 53.8713 26.2261C51.408 26.0448 49.0629 25.1756 47.1479 23.734Z" fill="#304D30"/>
</svg>
