<svg width="68" height="68" viewBox="0 0 68 68" fill="none" xmlns="http://www.w3.org/2000/svg">
<g filter="url(#filter0_d_759_34524)">
<path d="M53.5714 0H6.42857C2.87946 0 0 2.87946 0 6.42857V53.5714C0 57.1205 2.87946 60 6.42857 60H53.5714C57.1205 60 60 57.1205 60 53.5714V6.42857C60 2.87946 57.1205 0 53.5714 0ZM37.1384 51.3884C36.0134 51.5893 35.5982 50.8929 35.5982 50.317C35.5982 49.5938 35.625 45.8973 35.625 42.9107C35.625 40.8214 34.9286 39.4955 34.1116 38.7991C39.067 38.25 44.2902 37.567 44.2902 29.0089C44.2902 26.5714 43.4196 25.3527 42 23.7857C42.2277 23.2098 42.9911 20.8393 41.7723 17.7589C39.9107 17.183 35.6518 20.1562 35.6518 20.1562C33.8839 19.6607 31.9688 19.4062 30.0804 19.4062C28.192 19.4062 26.2768 19.6607 24.5089 20.1562C24.5089 20.1562 20.25 17.183 18.3884 17.7589C17.1696 20.8259 17.9196 23.1964 18.1607 23.7857C16.7411 25.3527 16.0714 26.5714 16.0714 29.0089C16.0714 37.5268 21.067 38.25 26.0223 38.7991C25.3795 39.375 24.8036 40.3661 24.6027 41.7857C23.3304 42.3616 20.0759 43.3527 18.1339 39.9241C16.9152 37.808 14.7188 37.6339 14.7188 37.6339C12.5491 37.6071 14.5714 39 14.5714 39C16.0179 39.6696 17.0357 42.2411 17.0357 42.2411C18.3348 46.2187 24.5491 44.8795 24.5491 44.8795C24.5491 46.7411 24.5759 49.7679 24.5759 50.317C24.5759 50.8929 24.1741 51.5893 23.0357 51.3884C14.1964 48.4286 8.00893 40.0179 8.00893 30.1875C8.00893 17.8929 17.4107 8.55804 29.7054 8.55804C42 8.55804 51.9643 17.8929 51.9643 30.1875C51.9777 40.0179 45.9777 48.442 37.1384 51.3884ZM24 43.2054C23.7455 43.2589 23.5045 43.1518 23.4777 42.9777C23.4509 42.7768 23.625 42.6027 23.8795 42.5491C24.1339 42.5223 24.375 42.6295 24.4018 42.8036C24.442 42.9777 24.2679 43.1518 24 43.2054ZM22.7277 43.0848C22.7277 43.2589 22.5268 43.4062 22.2589 43.4062C21.9643 43.433 21.7634 43.2857 21.7634 43.0848C21.7634 42.9107 21.9643 42.7634 22.2321 42.7634C22.4866 42.7366 22.7277 42.8839 22.7277 43.0848ZM20.8929 42.9375C20.8393 43.1116 20.5714 43.192 20.3437 43.1116C20.0893 43.058 19.9152 42.8571 19.9688 42.683C20.0223 42.5089 20.2902 42.4286 20.5179 42.4821C20.7857 42.5625 20.9598 42.7634 20.8929 42.9375ZM19.2455 42.2143C19.125 42.3616 18.8705 42.3348 18.6696 42.1339C18.4687 41.9598 18.4152 41.7054 18.5491 41.5848C18.6696 41.4375 18.9241 41.4643 19.125 41.6652C19.2991 41.8393 19.3661 42.1071 19.2455 42.2143ZM18.0268 40.9955C17.9062 41.0759 17.6786 40.9955 17.5312 40.7946C17.3839 40.5938 17.3839 40.3661 17.5312 40.2723C17.6786 40.1518 17.9062 40.2455 18.0268 40.4464C18.1741 40.6473 18.1741 40.8884 18.0268 40.9955ZM17.1562 39.6964C17.0357 39.817 16.8348 39.75 16.6875 39.6161C16.5402 39.442 16.5134 39.2411 16.6339 39.1473C16.7545 39.0268 16.9554 39.0937 17.1027 39.2277C17.25 39.4018 17.2768 39.6027 17.1562 39.6964ZM16.2589 38.7054C16.2054 38.8259 16.0312 38.8527 15.8839 38.7589C15.7098 38.6786 15.6295 38.5312 15.683 38.4107C15.7366 38.3304 15.8839 38.2902 16.058 38.3571C16.2321 38.4509 16.3125 38.5982 16.2589 38.7054Z" fill="black"/>
</g>
<defs>
<filter id="filter0_d_759_34524" x="0" y="0" width="68" height="68" filterUnits="userSpaceOnUse" color-interpolation-filters="sRGB">
<feFlood flood-opacity="0" result="BackgroundImageFix"/>
<feColorMatrix in="SourceAlpha" type="matrix" values="0 0 0 0 0 0 0 0 0 0 0 0 0 0 0 0 0 0 127 0" result="hardAlpha"/>
<feOffset dx="4" dy="4"/>
<feGaussianBlur stdDeviation="2"/>
<feComposite in2="hardAlpha" operator="out"/>
<feColorMatrix type="matrix" values="0 0 0 0 0 0 0 0 0 0 0 0 0 0 0 0 0 0 0.3 0"/>
<feBlend mode="normal" in2="BackgroundImageFix" result="effect1_dropShadow_759_34524"/>
<feBlend mode="normal" in="SourceGraphic" in2="effect1_dropShadow_759_34524" result="shape"/>
</filter>
</defs>
</svg>
