<svg width="68" height="69" viewBox="0 0 68 69" fill="none" xmlns="http://www.w3.org/2000/svg">
<g filter="url(#filter0_d_759_34520)">
<path d="M59.8068 17.7388C59.7701 15.2166 59.3036 12.7143 58.4107 10.3554C56.8481 6.32719 53.6662 3.14194 49.6379 1.58263C47.309 0.706353 44.8467 0.236562 42.3545 0.183252C39.1493 0.0399824 38.1331 0 29.9967 0C21.8603 0 20.8174 2.23418e-07 17.6355 0.183252C15.1466 0.236562 12.6844 0.706353 10.3554 1.58263C6.32719 3.14194 3.14194 6.32719 1.58263 10.3554C0.706352 12.6844 0.23323 15.1466 0.186584 17.6355C0.0433141 20.8441 0 21.8603 0 29.9967C0 38.1331 -2.48242e-08 39.1726 0.186584 42.3578C0.236562 44.8501 0.706352 47.309 1.58263 49.6446C3.14527 53.6695 6.32719 56.8547 10.3587 58.414C12.6777 59.3203 15.1399 59.8334 17.6388 59.9134C20.8474 60.0566 21.8636 60.0999 30 60.0999C38.1364 60.0999 39.1793 60.0999 42.3612 59.9134C44.8501 59.8634 47.3123 59.3936 49.6446 58.5173C53.6728 56.9547 56.8547 53.7694 58.4174 49.7446C59.2937 47.4123 59.7634 44.9534 59.8134 42.4578C59.9567 39.2526 60 38.2363 60 30.0966C59.9933 21.9602 59.9933 20.9274 59.8068 17.7388ZM29.9767 45.3832C21.4671 45.3832 14.5735 38.4896 14.5735 29.98C14.5735 21.4705 21.4671 14.5769 29.9767 14.5769C38.4796 14.5769 45.3798 21.4705 45.3798 29.98C45.3798 38.4896 38.4796 45.3832 29.9767 45.3832ZM45.9929 17.5988C44.0038 17.5988 42.4012 15.9929 42.4012 14.0071C42.4012 12.0213 44.0038 10.4154 45.9929 10.4154C47.9753 10.4154 49.5813 12.0213 49.5813 14.0071C49.5813 15.9929 47.9753 17.5988 45.9929 17.5988Z" fill="black"/>
<path d="M29.9743 39.9877C35.5002 39.9877 39.9799 35.508 39.9799 29.9821C39.9799 24.4562 35.5002 19.9766 29.9743 19.9766C24.4484 19.9766 19.9688 24.4562 19.9688 29.9821C19.9688 35.508 24.4484 39.9877 29.9743 39.9877Z" fill="black"/>
</g>
<defs>
<filter id="filter0_d_759_34520" x="0" y="0" width="68" height="68.1016" filterUnits="userSpaceOnUse" color-interpolation-filters="sRGB">
<feFlood flood-opacity="0" result="BackgroundImageFix"/>
<feColorMatrix in="SourceAlpha" type="matrix" values="0 0 0 0 0 0 0 0 0 0 0 0 0 0 0 0 0 0 127 0" result="hardAlpha"/>
<feOffset dx="4" dy="4"/>
<feGaussianBlur stdDeviation="2"/>
<feComposite in2="hardAlpha" operator="out"/>
<feColorMatrix type="matrix" values="0 0 0 0 0 0 0 0 0 0 0 0 0 0 0 0 0 0 0.3 0"/>
<feBlend mode="normal" in2="BackgroundImageFix" result="effect1_dropShadow_759_34520"/>
<feBlend mode="normal" in="SourceGraphic" in2="effect1_dropShadow_759_34520" result="shape"/>
</filter>
</defs>
</svg>
