<svg width="56" height="40" viewBox="0 0 56 40" fill="none" xmlns="http://www.w3.org/2000/svg">
<rect width="56" height="40" rx="10" fill="#A44C4C"/>
<path d="M38.4124 25.626L32.7856 19.9998L38.4106 14.3742C38.466 14.3188 38.51 14.253 38.54 14.1806C38.57 14.1082 38.5854 14.0306 38.5854 13.9522C38.5854 13.8739 38.57 13.7963 38.54 13.7239C38.51 13.6515 38.466 13.5857 38.4106 13.5303L34.4701 9.58888C34.3582 9.47694 34.2063 9.41406 34.048 9.41406C33.8897 9.41406 33.7379 9.47694 33.6259 9.58888L28 15.2145L22.375 9.58888C22.1512 9.36478 21.7549 9.36478 21.5308 9.58888L17.5894 13.5297C17.4776 13.6417 17.4148 13.7935 17.4148 13.9518C17.4148 14.11 17.4776 14.2618 17.5894 14.3739L23.2153 19.9998L17.5885 25.6263C17.4768 25.7383 17.4141 25.8901 17.4141 26.0484C17.4141 26.2066 17.4768 26.3584 17.5885 26.4705L21.5293 30.4116C21.5847 30.4671 21.6505 30.5111 21.7229 30.5411C21.7954 30.5712 21.873 30.5866 21.9514 30.5866C22.0298 30.5866 22.1075 30.5712 22.1799 30.5411C22.2523 30.5111 22.3181 30.4671 22.3735 30.4116L28 24.7851L33.6268 30.4113C33.7435 30.5277 33.8956 30.5862 34.0489 30.5862C34.2022 30.5862 34.3546 30.5277 34.4713 30.4113L38.4127 26.4702C38.5246 26.3582 38.5874 26.2063 38.5874 26.048C38.5873 25.8897 38.5244 25.7379 38.4124 25.626Z" fill="#F7F7F7"/>
</svg>
