<svg width="40" height="40" viewBox="0 0 40 40" fill="none" xmlns="http://www.w3.org/2000/svg">
<path fill-rule="evenodd" clip-rule="evenodd" d="M20.0026 5.05927C19.9059 5.2276 19.7976 5.42094 19.6709 5.64927L19.5076 5.9426L19.4693 6.00927C19.3393 6.24927 19.1226 6.64594 18.7609 6.92094C18.3926 7.20094 17.9476 7.2976 17.6893 7.35427L17.6159 7.36927L17.2993 7.44094C17.0059 7.5076 16.7676 7.56094 16.5659 7.6126C16.6976 7.77427 16.8693 7.9776 17.0926 8.23927L17.3093 8.4926L17.3593 8.54927C17.5393 8.7576 17.8293 9.09094 17.9643 9.52427C18.0976 9.95094 18.0509 10.3909 18.0226 10.6676C18.0197 10.6937 18.0169 10.7198 18.0143 10.7459L17.9809 11.0843C17.956 11.3397 17.9326 11.5952 17.9109 11.8509C18.0859 11.7743 18.2826 11.6843 18.5176 11.5759L18.8159 11.4393L18.8826 11.4059C19.1226 11.2943 19.5376 11.0976 20.0026 11.0976C20.4676 11.0976 20.8826 11.2943 21.1226 11.4076L21.1893 11.4393L21.4876 11.5759C21.7209 11.6843 21.9209 11.7759 22.0943 11.8509C22.0726 11.5952 22.0493 11.3397 22.0243 11.0843L21.9909 10.7459C21.9883 10.7198 21.9855 10.6937 21.9826 10.6676C21.9543 10.3893 21.9076 9.95094 22.0409 9.52427C22.1743 9.09094 22.4659 8.7576 22.6459 8.54927L22.6959 8.4926L22.9126 8.23927C23.1359 7.9776 23.3076 7.77427 23.4393 7.6126C23.2376 7.5626 22.9993 7.5076 22.7059 7.44094L22.3893 7.36927L22.3159 7.3526C22.0576 7.2976 21.6126 7.20094 21.2443 6.91927C20.8826 6.64594 20.6659 6.24927 20.5359 6.01094L20.4976 5.9426L20.3343 5.64927C20.2076 5.42094 20.1009 5.2276 20.0026 5.05927ZM18.3593 3.0026C18.6459 2.6276 19.1659 2.08594 20.0026 2.08594C20.8393 2.08594 21.3593 2.6276 21.6459 3.0026C21.9209 3.35927 22.1959 3.85427 22.4793 4.3626L22.5176 4.43094L22.6809 4.72594L22.7759 4.8926L22.9409 4.93094L23.2576 5.0026L23.3376 5.01927C23.8826 5.14427 24.4259 5.26594 24.8426 5.43094C25.3026 5.6126 25.9259 5.96427 26.1676 6.73927C26.4043 7.4976 26.1059 8.14094 25.8459 8.55594C25.6043 8.93927 25.2376 9.36594 24.8626 9.80427L24.8126 9.8626L24.5959 10.1176L24.4593 10.2793C24.4626 10.3393 24.4709 10.4093 24.4793 10.5043L24.5126 10.8426L24.5193 10.9193C24.5759 11.5059 24.6309 12.0726 24.6109 12.5259C24.5909 13.0026 24.4776 13.7226 23.8309 14.2109C23.1643 14.7176 22.4309 14.6076 21.9643 14.4726C21.5343 14.3509 21.0259 14.1159 20.5143 13.8809L20.4426 13.8476L20.1426 13.7093L20.0026 13.6443L19.8609 13.7109L19.5626 13.8476L19.4893 13.8809C18.9793 14.1159 18.4726 14.3509 18.0409 14.4726C17.5743 14.6059 16.8409 14.7176 16.1743 14.2109C15.5293 13.7226 15.4143 13.0026 15.3943 12.5276C15.3743 12.0726 15.4276 11.5059 15.4859 10.9193L15.4926 10.8426L15.5259 10.5043L15.5476 10.2793C15.5018 10.2251 15.4557 10.1712 15.4093 10.1176L15.1926 9.8626L15.1426 9.80427C14.7676 9.36594 14.4009 8.9376 14.1593 8.55427C13.8993 8.14094 13.6009 7.4976 13.8376 6.7376C14.0776 5.96594 14.7026 5.6126 15.1626 5.43094C15.5793 5.26594 16.1226 5.14427 16.6676 5.02094L16.7459 5.00427L17.0643 4.93094L17.2309 4.8926L17.3243 4.72594L17.4876 4.43094L17.5259 4.3626C17.8093 3.85427 18.0843 3.35927 18.3593 3.0026ZM18.2543 15.4193H21.7509C22.8593 15.4193 23.8143 15.4193 24.5793 15.5226C25.3993 15.6326 26.1843 15.8809 26.8209 16.5176C27.4576 17.1543 27.7059 17.9393 27.8159 18.7593C27.9193 19.5243 27.9193 20.4793 27.9193 21.5876V25.6976C28.1926 25.6143 28.4743 25.5609 28.7593 25.5226C29.5243 25.4193 30.4793 25.4193 31.5876 25.4193H31.7509C32.8593 25.4193 33.8143 25.4193 34.5793 25.5226C35.3993 25.6326 36.1843 25.8809 36.8209 26.5176C37.4576 27.1543 37.7059 27.9393 37.8159 28.7593C37.9193 29.5243 37.9193 30.4793 37.9193 31.5876V36.6693C37.9193 37.0008 37.7876 37.3187 37.5532 37.5532C37.3187 37.7876 37.0008 37.9193 36.6693 37.9193C36.3377 37.9193 36.0198 37.7876 35.7854 37.5532C35.551 37.3187 35.4193 37.0008 35.4193 36.6693V31.6693C35.4193 30.4559 35.4159 29.6693 35.3393 29.0926C35.2659 28.5509 35.1476 28.3809 35.0526 28.2859C34.9576 28.1909 34.7876 28.0726 34.2459 27.9993C33.6676 27.9226 32.8826 27.9193 31.6693 27.9193C30.4559 27.9193 29.6693 27.9226 29.0926 27.9993C28.5509 28.0726 28.3809 28.1909 28.2859 28.2859C28.1909 28.3809 28.0726 28.5509 27.9993 29.0926C27.9226 29.6709 27.9193 30.4559 27.9193 31.6693V36.6693C27.9193 37.0008 27.7876 37.3187 27.5532 37.5532C27.3187 37.7876 27.0008 37.9193 26.6693 37.9193C26.3377 37.9193 26.0198 37.7876 25.7854 37.5532C25.551 37.3187 25.4193 37.0008 25.4193 36.6693V21.6693C25.4193 20.4559 25.4159 19.6693 25.3393 19.0926C25.2659 18.5509 25.1476 18.3809 25.0526 18.2859C24.9576 18.1909 24.7876 18.0726 24.2459 17.9993C23.6676 17.9226 22.8826 17.9193 21.6693 17.9193H18.3359C17.1226 17.9193 16.3359 17.9226 15.7593 17.9993C15.2176 18.0726 15.0476 18.1909 14.9526 18.2859C14.8576 18.3809 14.7393 18.5509 14.6659 19.0926C14.5893 19.6709 14.5859 20.4559 14.5859 21.6693V36.6693C14.5859 37.0008 14.4542 37.3187 14.2198 37.5532C13.9854 37.7876 13.6675 37.9193 13.3359 37.9193C13.0044 37.9193 12.6865 37.7876 12.4521 37.5532C12.2176 37.3187 12.0859 37.0008 12.0859 36.6693C12.0859 35.4559 12.0826 34.6693 12.0059 34.0926C11.9326 33.5509 11.8143 33.3809 11.7193 33.2859C11.6243 33.1909 11.4543 33.0726 10.9126 32.9993C10.3343 32.9226 9.54927 32.9193 8.33594 32.9193C7.1226 32.9193 6.33594 32.9226 5.75927 32.9993C5.2176 33.0726 5.0476 33.1909 4.9526 33.2859C4.8576 33.3809 4.73927 33.5509 4.66594 34.0926C4.58927 34.6709 4.58594 35.4559 4.58594 36.6693C4.58594 37.0008 4.45424 37.3187 4.21982 37.5532C3.9854 37.7876 3.66746 37.9193 3.33594 37.9193C3.00442 37.9193 2.68647 37.7876 2.45205 37.5532C2.21763 37.3187 2.08594 37.0008 2.08594 36.6693V36.5859C2.08594 35.4793 2.08594 34.5243 2.18927 33.7593C2.29927 32.9393 2.5476 32.1543 3.18427 31.5176C3.82094 30.8809 4.6076 30.6326 5.42594 30.5226C6.19094 30.4193 7.14594 30.4193 8.25427 30.4193H8.4176C9.52594 30.4193 10.4809 30.4193 11.2459 30.5226C11.5309 30.5609 11.8126 30.6159 12.0859 30.6976V21.5876C12.0859 20.4793 12.0859 19.5243 12.1893 18.7593C12.2993 17.9393 12.5476 17.1543 13.1843 16.5176C13.8209 15.8809 14.6076 15.6326 15.4259 15.5226C16.1909 15.4193 17.1459 15.4193 18.2543 15.4193Z" fill="#F7F7F7"/>
</svg>
