<svg width="40" height="40" viewBox="0 0 40 40" fill="none" xmlns="http://www.w3.org/2000/svg">
<g clip-path="url(#clip0_759_57727)">
<path d="M36.6667 9.16406H15C13.1667 9.16406 11.6667 10.6641 11.6667 12.4974V27.4974C11.6667 28.3815 12.0179 29.2293 12.643 29.8544C13.2681 30.4795 14.1159 30.8307 15 30.8307H36.6667C38.5167 30.8307 40 29.3474 40 27.4974V12.4974C40 11.6133 39.6488 10.7655 39.0237 10.1404C38.3986 9.51525 37.5507 9.16406 36.6667 9.16406ZM36.6667 27.4974H15V15.2807L25.8333 20.8307L36.6667 15.2807V27.4974ZM25.8333 18.0141L15 12.4974H36.6667L25.8333 18.0141ZM8.33333 27.4974C8.33333 27.7807 8.38333 28.0474 8.41667 28.3307H1.66667C0.746667 28.3307 0 27.5807 0 26.6641C0 25.7474 0.746667 24.9974 1.66667 24.9974H8.33333V27.4974ZM5 11.6641H8.41667C8.38333 11.9474 8.33333 12.2141 8.33333 12.4974V14.9974H5C4.08333 14.9974 3.33333 14.2474 3.33333 13.3307C3.33333 12.4141 4.08333 11.6641 5 11.6641ZM1.66667 19.9974C1.66667 19.0807 2.41667 18.3307 3.33333 18.3307H8.33333V21.6641H3.33333C2.41667 21.6641 1.66667 20.9141 1.66667 19.9974Z" fill="#F7F7F7"/>
</g>
<defs>
<clipPath id="clip0_759_57727">
<rect width="40" height="40" fill="white"/>
</clipPath>
</defs>
</svg>
