<svg width="40" height="40" viewBox="0 0 40 40" fill="none" xmlns="http://www.w3.org/2000/svg">
<path d="M8.75 13.125C8.75 11.9647 9.21094 10.8519 10.0314 10.0314C10.8519 9.21094 11.9647 8.75 13.125 8.75C14.2853 8.75 15.3981 9.21094 16.2186 10.0314C17.0391 10.8519 17.5 11.9647 17.5 13.125C17.5 14.2853 17.0391 15.3981 16.2186 16.2186C15.3981 17.0391 14.2853 17.5 13.125 17.5C11.9647 17.5 10.8519 17.0391 10.0314 16.2186C9.21094 15.3981 8.75 14.2853 8.75 13.125ZM13.125 6.25C11.3016 6.25 9.55295 6.97433 8.26364 8.26364C6.97433 9.55295 6.25 11.3016 6.25 13.125C6.25 14.9484 6.97433 16.697 8.26364 17.9864C9.55295 19.2757 11.3016 20 13.125 20C14.9484 20 16.697 19.2757 17.9864 17.9864C19.2757 16.697 20 14.9484 20 13.125C20 11.3016 19.2757 9.55295 17.9864 8.26364C16.697 6.97433 14.9484 6.25 13.125 6.25ZM26.25 15C26.25 14.337 26.5134 13.7011 26.9822 13.2322C27.4511 12.7634 28.087 12.5 28.75 12.5C29.413 12.5 30.0489 12.7634 30.5178 13.2322C30.9866 13.7011 31.25 14.337 31.25 15C31.25 15.663 30.9866 16.2989 30.5178 16.7678C30.0489 17.2366 29.413 17.5 28.75 17.5C28.087 17.5 27.4511 17.2366 26.9822 16.7678C26.5134 16.2989 26.25 15.663 26.25 15ZM28.75 10C27.4239 10 26.1522 10.5268 25.2145 11.4645C24.2768 12.4021 23.75 13.6739 23.75 15C23.75 16.3261 24.2768 17.5979 25.2145 18.5355C26.1522 19.4732 27.4239 20 28.75 20C30.0761 20 31.3479 19.4732 32.2855 18.5355C33.2232 17.5979 33.75 16.3261 33.75 15C33.75 13.6739 33.2232 12.4021 32.2855 11.4645C31.3479 10.5268 30.0761 10 28.75 10ZM2.5 26.25C2.5 25.2554 2.89509 24.3016 3.59835 23.5983C4.30161 22.8951 5.25544 22.5 6.25 22.5H20C20.9946 22.5 21.9484 22.8951 22.6517 23.5983C23.3549 24.3016 23.75 25.2554 23.75 26.25V26.5325C23.7471 26.6491 23.7388 26.7655 23.725 26.8812C23.7 27.0975 23.6538 27.3912 23.5625 27.7387C23.3212 28.655 22.8963 29.5128 22.3138 30.26C20.8513 32.1375 18.1 33.75 13.125 33.75C8.15 33.75 5.4 32.1375 3.93625 30.26C3.35321 29.5129 2.92795 28.6551 2.68625 27.7387C2.59143 27.3709 2.53034 26.9952 2.50375 26.6162L2.50125 26.5325V26.5037L2.5 26.4937V26.25ZM5 26.4725V26.4875C5 26.5092 5.00375 26.5483 5.01125 26.605C5.02375 26.7175 5.05 26.8925 5.10625 27.11C5.21875 27.545 5.4475 28.1325 5.9075 28.7238C6.78875 29.8538 8.725 31.25 13.125 31.25C17.525 31.25 19.4625 29.8537 20.3425 28.725C20.7153 28.2461 20.9875 27.6968 21.1425 27.11C21.1958 26.9059 21.2317 26.6977 21.25 26.4875L21.2513 26.4725V26.25C21.2513 25.9185 21.1196 25.6005 20.8851 25.3661C20.6507 25.1317 20.3328 25 20.0013 25H6.25C5.91848 25 5.60054 25.1317 5.36612 25.3661C5.1317 25.6005 5 25.9185 5 26.25V26.4725ZM24.3463 30.615C25.5088 31.01 26.955 31.25 28.75 31.25C32.7513 31.25 35.025 30.0588 36.2663 28.5938C36.87 27.8813 37.1788 27.1588 37.335 26.6038C37.4191 26.3062 37.4731 26.0009 37.4963 25.6925L37.4975 25.6475L37.4988 25.62V25.5725C37.4989 25.1691 37.4196 24.7696 37.2653 24.3968C37.1111 24.024 36.8849 23.6853 36.5996 23.4C36.3144 23.1147 35.9758 22.8883 35.6031 22.7339C35.2304 22.5795 34.8309 22.5 34.4275 22.5H24.1913C24.8163 23.1988 25.27 24.0537 25.485 25H34.4275C34.74 25 34.9925 25.2487 35 25.5575L34.995 25.6125C34.98 25.7179 34.9583 25.8223 34.93 25.925C34.8525 26.2 34.6925 26.585 34.3588 26.9788C33.725 27.7275 32.2488 28.75 28.75 28.75C27.2938 28.75 26.1888 28.5725 25.3488 28.3125C25.127 29.1242 24.7894 29.8997 24.3463 30.615Z" fill="#F7F7F7"/>
</svg>
