<svg width="40" height="40" viewBox="0 0 40 40" fill="none" xmlns="http://www.w3.org/2000/svg">
<path fill-rule="evenodd" clip-rule="evenodd" d="M26.6615 14.9948C26.6615 16.7629 25.9591 18.4586 24.7088 19.7088C23.4586 20.9591 21.7629 21.6615 19.9948 21.6615C18.2267 21.6615 16.531 20.9591 15.2807 19.7088C14.0305 18.4586 13.3281 16.7629 13.3281 14.9948C13.3281 13.2267 14.0305 11.531 15.2807 10.2807C16.531 9.0305 18.2267 8.32813 19.9948 8.32812C21.7629 8.32813 23.4586 9.0305 24.7088 10.2807C25.9591 11.531 26.6615 13.2267 26.6615 14.9948ZM23.3281 14.9948C23.3281 15.8788 22.9769 16.7267 22.3518 17.3518C21.7267 17.9769 20.8788 18.3281 19.9948 18.3281C19.1107 18.3281 18.2629 17.9769 17.6378 17.3518C17.0126 16.7267 16.6615 15.8788 16.6615 14.9948C16.6615 14.1107 17.0126 13.2629 17.6378 12.6378C18.2629 12.0126 19.1107 11.6615 19.9948 11.6615C20.8788 11.6615 21.7267 12.0126 22.3518 12.6378C22.9769 13.2629 23.3281 14.1107 23.3281 14.9948Z" fill="#F7F7F7"/>
<path fill-rule="evenodd" clip-rule="evenodd" d="M19.9974 1.66406C9.8724 1.66406 1.66406 9.8724 1.66406 19.9974C1.66406 30.1224 9.8724 38.3307 19.9974 38.3307C30.1224 38.3307 38.3307 30.1224 38.3307 19.9974C38.3307 9.8724 30.1224 1.66406 19.9974 1.66406ZM4.9974 19.9974C4.9974 23.4807 6.18573 26.6874 8.1774 29.2341C9.57611 27.3972 11.3806 25.9086 13.4498 24.8846C15.519 23.8605 17.797 23.3287 20.1057 23.3307C22.3846 23.3286 24.6339 23.8466 26.6823 24.8454C28.7306 25.8441 30.524 27.2973 31.9257 29.0941C33.3698 27.2001 34.3421 24.9894 34.7622 22.645C35.1823 20.3007 35.0381 17.89 34.3416 15.6124C33.645 13.3348 32.4161 11.2558 30.7565 9.54746C29.097 7.83911 27.0545 6.55049 24.798 5.78824C22.5416 5.02599 20.1361 4.81201 17.7805 5.16402C15.4249 5.51602 13.187 6.42388 11.252 7.81248C9.31697 9.20109 7.74041 11.0305 6.65278 13.1494C5.56514 15.2683 4.9977 17.6157 4.9974 19.9974ZM19.9974 34.9974C16.554 35.0026 13.2145 33.818 10.5441 31.6441C11.6189 30.1053 13.0496 28.8489 14.7144 27.9819C16.3791 27.1148 18.2287 26.6627 20.1057 26.6641C21.9593 26.6626 23.7865 27.1033 25.4356 27.9498C27.0847 28.7962 28.508 30.0238 29.5874 31.5307C26.8962 33.7752 23.5017 35.0023 19.9974 34.9974Z" fill="#F7F7F7"/>
</svg>
