<svg width="35" height="35" viewBox="0 0 35 35" fill="none" xmlns="http://www.w3.org/2000/svg">
<path fill-rule="evenodd" clip-rule="evenodd" d="M17.4974 4.42198C17.4128 4.56927 17.318 4.73844 17.2072 4.93823L17.0643 5.1949L17.0307 5.25323C16.917 5.46323 16.7274 5.81031 16.4109 6.05094C16.0886 6.29594 15.6993 6.38052 15.4732 6.4301L15.4091 6.44323L15.132 6.50594C14.8753 6.56427 14.6668 6.61094 14.4903 6.65615C14.6055 6.7976 14.7557 6.97552 14.9511 7.20448L15.1407 7.42615L15.1845 7.47573C15.342 7.65802 15.5957 7.94969 15.7139 8.32885C15.8305 8.70219 15.7897 9.08719 15.7649 9.32927C15.7623 9.3521 15.7599 9.37495 15.7576 9.39781L15.7284 9.69385C15.7066 9.91733 15.6862 10.1409 15.6672 10.3647C15.8203 10.2976 15.9924 10.2189 16.198 10.1241L16.4591 10.0045L16.5174 9.97531C16.7274 9.8776 17.0905 9.70552 17.4974 9.70552C17.9043 9.70552 18.2674 9.8776 18.4774 9.97677L18.5357 10.0045L18.7968 10.1241C19.0009 10.2189 19.1759 10.2991 19.3276 10.3647C19.3086 10.1409 19.2882 9.91733 19.2664 9.69385L19.2372 9.39781C19.2349 9.37495 19.2325 9.3521 19.2299 9.32927C19.2051 9.08573 19.1643 8.70219 19.2809 8.32885C19.3976 7.94969 19.6528 7.65802 19.8103 7.47573L19.8541 7.42615L20.0436 7.20448C20.2391 6.97552 20.3893 6.7976 20.5045 6.65615C20.328 6.6124 20.1195 6.56427 19.8628 6.50594L19.5857 6.44323L19.5216 6.42865C19.2955 6.38052 18.9061 6.29594 18.5839 6.04948C18.2674 5.81031 18.0778 5.46323 17.9641 5.25469L17.9305 5.1949L17.7876 4.93823C17.6768 4.73844 17.5834 4.56927 17.4974 4.42198ZM16.0595 2.6224C16.3103 2.29427 16.7653 1.82031 17.4974 1.82031C18.2295 1.82031 18.6845 2.29427 18.9353 2.6224C19.1759 2.93448 19.4166 3.3676 19.6645 3.8124L19.698 3.87219L19.8409 4.13031L19.9241 4.27615L20.0684 4.30969L20.3455 4.3724L20.4155 4.38698C20.8924 4.49635 21.3678 4.60281 21.7324 4.74719C22.1349 4.90615 22.6803 5.21385 22.8918 5.89198C23.0989 6.55552 22.8378 7.11844 22.6103 7.48156C22.3989 7.81698 22.078 8.19031 21.7499 8.57385L21.7061 8.6249L21.5166 8.84802L21.397 8.98948C21.3999 9.04198 21.4072 9.10323 21.4145 9.18635L21.4436 9.4824L21.4495 9.54948C21.4991 10.0628 21.5472 10.5586 21.5297 10.9553C21.5122 11.3724 21.413 12.0024 20.8472 12.4297C20.2639 12.873 19.6222 12.7768 19.2139 12.6586C18.8376 12.5522 18.3928 12.3466 17.9451 12.1409L17.8824 12.1118L17.6199 11.9907L17.4974 11.9339L17.3734 11.9922L17.1124 12.1118L17.0482 12.1409C16.602 12.3466 16.1586 12.5522 15.7809 12.6586C15.3726 12.7753 14.7309 12.873 14.1476 12.4297C13.5832 12.0024 13.4826 11.3724 13.4651 10.9568C13.4476 10.5586 13.4943 10.0628 13.5453 9.54948L13.5511 9.4824L13.5803 9.18635L13.5993 8.98948C13.5592 8.94206 13.5189 8.89491 13.4782 8.84802L13.2886 8.6249L13.2449 8.57385C12.9168 8.19031 12.5959 7.81552 12.3845 7.4801C12.157 7.11844 11.8959 6.55552 12.103 5.89052C12.313 5.21531 12.8599 4.90615 13.2624 4.74719C13.627 4.60281 14.1024 4.49635 14.5793 4.38844L14.6478 4.37385L14.9264 4.30969L15.0722 4.27615L15.1539 4.13031L15.2968 3.87219L15.3303 3.8124C15.5782 3.3676 15.8189 2.93448 16.0595 2.6224ZM15.9676 13.487H19.0272C19.997 13.487 20.8326 13.487 21.502 13.5774C22.2195 13.6736 22.9064 13.8909 23.4634 14.448C24.0205 15.0051 24.2378 15.692 24.3341 16.4095C24.4245 17.0789 24.4245 17.9145 24.4245 18.8843V22.4805C24.6636 22.4076 24.9101 22.3609 25.1595 22.3274C25.8289 22.237 26.6645 22.237 27.6343 22.237H27.7772C28.747 22.237 29.5826 22.237 30.252 22.3274C30.9695 22.4236 31.6564 22.6409 32.2134 23.198C32.7705 23.7551 32.9878 24.442 33.0841 25.1595C33.1745 25.8289 33.1745 26.6645 33.1745 27.6343V32.0807C33.1745 32.3708 33.0592 32.649 32.8541 32.8541C32.649 33.0592 32.3708 33.1745 32.0807 33.1745C31.7906 33.1745 31.5124 33.0592 31.3073 32.8541C31.1022 32.649 30.987 32.3708 30.987 32.0807V27.7057C30.987 26.6441 30.9841 25.9557 30.917 25.4511C30.8528 24.9772 30.7493 24.8284 30.6661 24.7453C30.583 24.6622 30.4343 24.5586 29.9603 24.4945C29.4543 24.4274 28.7674 24.4245 27.7057 24.4245C26.6441 24.4245 25.9557 24.4274 25.4511 24.4945C24.9772 24.5586 24.8284 24.6622 24.7453 24.7453C24.6622 24.8284 24.5586 24.9772 24.4945 25.4511C24.4274 25.9572 24.4245 26.6441 24.4245 27.7057V32.0807C24.4245 32.3708 24.3092 32.649 24.1041 32.8541C23.899 33.0592 23.6208 33.1745 23.3307 33.1745C23.0406 33.1745 22.7624 33.0592 22.5573 32.8541C22.3522 32.649 22.237 32.3708 22.237 32.0807V18.9557C22.237 17.8941 22.2341 17.2057 22.167 16.7011C22.1028 16.2272 21.9993 16.0784 21.9161 15.9953C21.833 15.9122 21.6843 15.8086 21.2103 15.7445C20.7043 15.6774 20.0174 15.6745 18.9557 15.6745H16.0391C14.9774 15.6745 14.2891 15.6774 13.7845 15.7445C13.3105 15.8086 13.1618 15.9122 13.0786 15.9953C12.9955 16.0784 12.892 16.2272 12.8278 16.7011C12.7607 17.2072 12.7578 17.8941 12.7578 18.9557V32.0807C12.7578 32.3708 12.6426 32.649 12.4375 32.8541C12.2323 33.0592 11.9541 33.1745 11.6641 33.1745C11.374 33.1745 11.0958 33.0592 10.8907 32.8541C10.6855 32.649 10.5703 32.3708 10.5703 32.0807C10.5703 31.0191 10.5674 30.3307 10.5003 29.8261C10.4361 29.3522 10.3326 29.2034 10.2495 29.1203C10.1664 29.0372 10.0176 28.9336 9.54365 28.8695C9.0376 28.8024 8.35073 28.7995 7.28906 28.7995C6.2274 28.7995 5.53906 28.8024 5.03448 28.8695C4.56052 28.9336 4.41177 29.0372 4.32865 29.1203C4.24552 29.2034 4.14198 29.3522 4.07781 29.8261C4.01073 30.3322 4.00781 31.0191 4.00781 32.0807C4.00781 32.3708 3.89258 32.649 3.68746 32.8541C3.48234 33.0592 3.20414 33.1745 2.91406 33.1745C2.62398 33.1745 2.34578 33.0592 2.14066 32.8541C1.93555 32.649 1.82031 32.3708 1.82031 32.0807V32.0078C1.82031 31.0395 1.82031 30.2039 1.91073 29.5345C2.00698 28.817 2.22427 28.1301 2.78135 27.573C3.33844 27.0159 4.02677 26.7986 4.74281 26.7024C5.41219 26.612 6.24781 26.612 7.2176 26.612H7.36052C8.33031 26.612 9.16594 26.612 9.83531 26.7024C10.0847 26.7359 10.3311 26.7841 10.5703 26.8555V18.8843C10.5703 17.9145 10.5703 17.0789 10.6607 16.4095C10.757 15.692 10.9743 15.0051 11.5314 14.448C12.0884 13.8909 12.7768 13.6736 13.4928 13.5774C14.1622 13.487 14.9978 13.487 15.9676 13.487Z" fill="#F7F7F7"/>
</svg>
