<svg width="40" height="40" viewBox="0 0 40 40" fill="none" xmlns="http://www.w3.org/2000/svg">
<g clip-path="url(#clip0_759_46213)">
<path fill-rule="evenodd" clip-rule="evenodd" d="M18.1988 4.77658C18.3822 4.46185 18.6449 4.2007 18.9607 4.0192C19.2766 3.8377 19.6345 3.74219 19.9988 3.74219C20.363 3.74219 20.7209 3.8377 21.0368 4.0192C21.3526 4.2007 21.6153 4.46185 21.7988 4.77658L26.4571 12.7732L35.5038 14.7332C35.8596 14.8106 36.189 14.9798 36.459 15.2241C36.7291 15.4684 36.9304 15.7793 37.0428 16.1256C37.1553 16.472 37.175 16.8418 37.1 17.1981C37.025 17.5545 36.858 17.8849 36.6154 18.1566L30.4488 25.0582L31.3821 34.2666C31.4189 34.6292 31.36 34.9951 31.2111 35.3278C31.0623 35.6605 30.8288 35.9483 30.534 36.1625C30.2391 36.3767 29.8932 36.5099 29.5308 36.5486C29.1684 36.5873 28.8022 36.5303 28.4688 36.3832L19.9988 32.6499L11.5288 36.3832C11.1953 36.5303 10.8291 36.5873 10.4667 36.5486C10.1043 36.5099 9.75839 36.3767 9.46354 36.1625C9.16869 35.9483 8.93519 35.6605 8.78637 35.3278C8.63755 34.9951 8.5786 34.6292 8.61542 34.2666L9.54875 25.0582L3.38209 18.1582C3.13913 17.8866 2.97168 17.556 2.89644 17.1994C2.82121 16.8429 2.84082 16.4728 2.95333 16.1262C3.06583 15.7795 3.26729 15.4685 3.5376 15.2241C3.8079 14.9797 4.13759 14.8104 4.49375 14.7332L13.5404 12.7732L18.1988 4.77658ZM19.9988 8.30825L16.1438 14.9282C15.998 15.1781 15.8018 15.3949 15.5676 15.5648C15.3335 15.7346 15.0665 15.8539 14.7838 15.9149L7.29709 17.5366L12.4004 23.2482C12.7904 23.6849 12.9788 24.2649 12.9204 24.8466L12.1488 32.4682L19.1588 29.3782C19.4234 29.2616 19.7095 29.2014 19.9988 29.2014C20.288 29.2014 20.5741 29.2616 20.8388 29.3782L27.8488 32.4682L27.0771 24.8466C27.0478 24.5588 27.0787 24.268 27.168 23.9928C27.2572 23.7177 27.4028 23.4641 27.5954 23.2482L32.7004 17.5366L25.2138 15.9149C24.931 15.8539 24.664 15.7346 24.4299 15.5648C24.1957 15.3949 23.9995 15.1781 23.8538 14.9282L19.9988 8.30825Z" fill="#F7F7F7"/>
</g>
<defs>
<clipPath id="clip0_759_46213">
<rect width="40" height="40" fill="white"/>
</clipPath>
</defs>
</svg>
