<svg width="40" height="40" viewBox="0 0 40 40" fill="none" xmlns="http://www.w3.org/2000/svg">
<path d="M8.33333 31.6667V8.33333H20V20H31.6667V21.6667C32.8333 21.6667 33.95 21.8833 35 22.25V15L25 5H8.33333C6.48333 5 5 6.48333 5 8.33333V31.6667C5 32.5507 5.35119 33.3986 5.97631 34.0237C6.60143 34.6488 7.44928 35 8.33333 35H22.25C21.8833 33.95 21.6667 32.8333 21.6667 31.6667H8.33333ZM23.3333 7.5L32.5 16.6667H23.3333V7.5ZM38.3333 30V33.3333H33.3333V38.3333H30V33.3333H25V30H30V25H33.3333V30H38.3333Z" fill="#F7F7F7"/>
</svg>
