<svg width="40" height="40" viewBox="0 0 40 40" fill="none" xmlns="http://www.w3.org/2000/svg">
<path d="M20.0003 8C22.3926 8.00006 24.7304 8.7152 26.7133 10.0536C28.6963 11.392 30.2339 13.2925 31.1288 15.5112C32.0237 17.7299 32.235 20.1654 31.7356 22.5051C31.2362 24.8448 30.0488 26.9817 28.326 28.6416C26.6031 30.3015 24.4235 31.4086 22.0669 31.8207C19.7103 32.2327 17.2843 31.931 15.1004 30.9542C12.9166 29.9774 11.0745 28.3701 9.81077 26.3388C8.54705 24.3074 7.91935 21.9447 8.00826 19.554C8.01658 19.3564 7.98575 19.1592 7.91755 18.9735C7.84934 18.7879 7.74511 18.6176 7.61084 18.4724C7.47658 18.3273 7.31493 18.2101 7.1352 18.1276C6.95547 18.0451 6.76121 17.999 6.56359 17.9919C6.36597 17.9847 6.16889 18.0168 5.98369 18.0861C5.7985 18.1554 5.62883 18.2607 5.48447 18.3958C5.34011 18.531 5.22389 18.6933 5.14251 18.8736C5.06112 19.0538 5.01618 19.2483 5.01026 19.446C4.8824 22.9019 5.95262 26.2959 8.03975 29.0533C10.1269 31.8108 13.1027 33.7624 16.4635 34.5777C19.8243 35.3931 23.3636 35.0221 26.4823 33.5276C29.601 32.0331 32.1074 29.5069 33.5774 26.3766C35.0474 23.2463 35.3907 19.7042 34.549 16.3499C33.7073 12.9956 31.7324 10.0351 28.9587 7.9697C26.185 5.90425 22.7827 4.86068 19.3279 5.01563C15.8731 5.17058 12.578 6.51454 10.0003 8.82V6.5C10.0003 6.10218 9.84223 5.72064 9.56092 5.43934C9.27962 5.15804 8.89809 5 8.50026 5C8.10244 5 7.72091 5.15804 7.4396 5.43934C7.1583 5.72064 7.00026 6.10218 7.00026 6.5V12.5C7.00026 13.328 7.67226 14 8.50026 14H14.5003C14.8981 14 15.2796 13.842 15.5609 13.5607C15.8422 13.2794 16.0003 12.8978 16.0003 12.5C16.0003 12.1022 15.8422 11.7206 15.5609 11.4393C15.2796 11.158 14.8981 11 14.5003 11H12.0623C14.2526 9.06335 17.0765 7.99612 20.0003 8ZM21.0003 12.5C21.0003 12.1022 20.8422 11.7206 20.5609 11.4393C20.2796 11.158 19.8981 11 19.5003 11C19.1024 11 18.7209 11.158 18.4396 11.4393C18.1583 11.7206 18.0003 12.1022 18.0003 12.5V20.5C18.0003 21.328 18.6723 22 19.5003 22H25.5003C25.8981 22 26.2796 21.842 26.5609 21.5607C26.8422 21.2794 27.0003 20.8978 27.0003 20.5C27.0003 20.1022 26.8422 19.7206 26.5609 19.4393C26.2796 19.158 25.8981 19 25.5003 19H21.0003V12.5Z" fill="#F7F7F7"/>
</svg>
