<svg width="40" height="40" viewBox="0 0 40 40" fill="none" xmlns="http://www.w3.org/2000/svg">
<path d="M12.5 22.5H22.5V25H12.5V22.5ZM12.5 16.25H27.5V18.75H12.5V16.25ZM12.5 28.75H18.75V31.25H12.5V28.75Z" fill="#F7F7F7"/>
<path d="M31.25 6.25H27.5V5C27.5 4.33696 27.2366 3.70107 26.7678 3.23223C26.2989 2.76339 25.663 2.5 25 2.5H15C14.337 2.5 13.7011 2.76339 13.2322 3.23223C12.7634 3.70107 12.5 4.33696 12.5 5V6.25H8.75C8.08696 6.25 7.45107 6.51339 6.98223 6.98223C6.51339 7.45107 6.25 8.08696 6.25 8.75V35C6.25 35.663 6.51339 36.2989 6.98223 36.7678C7.45107 37.2366 8.08696 37.5 8.75 37.5H31.25C31.913 37.5 32.5489 37.2366 33.0178 36.7678C33.4866 36.2989 33.75 35.663 33.75 35V8.75C33.75 8.08696 33.4866 7.45107 33.0178 6.98223C32.5489 6.51339 31.913 6.25 31.25 6.25ZM15 5H25V10H15V5ZM31.25 35H8.75V8.75H12.5V12.5H27.5V8.75H31.25V35Z" fill="#F7F7F7"/>
</svg>
