<svg width="35" height="35" viewBox="0 0 35 35" fill="none" xmlns="http://www.w3.org/2000/svg">
<path d="M3.29663 22.7941C3.34621 22.323 3.68746 21.9439 4.36996 21.1841L5.8735 19.5026C6.241 19.0359 6.50204 18.2266 6.50204 17.4974C6.50204 16.7682 6.241 15.9574 5.87496 15.4922L4.3685 13.8107C3.686 13.0524 3.34475 12.6718 3.29517 12.2007C3.24558 11.7297 3.49933 11.2864 4.00975 10.4011L4.73017 9.15135C5.27413 8.20635 5.54683 7.73385 6.01058 7.54719C6.47288 7.3576 6.99642 7.50635 8.04496 7.80385L9.82412 8.30406C10.4935 8.45865 11.195 8.37115 11.8045 8.0576L12.296 7.77469C12.8198 7.43877 13.2225 6.94412 13.4452 6.36302L13.9322 4.90906C14.2531 3.94656 14.4135 3.46531 14.7941 3.18823C15.1777 2.91406 15.6837 2.91406 16.6958 2.91406H18.3218C19.3339 2.91406 19.8414 2.91406 20.222 3.18969C20.6027 3.46531 20.7631 3.94656 21.0825 4.90906L21.571 6.36302C21.7937 6.94412 22.1963 7.43877 22.7202 7.77469L23.2116 8.0576C23.8212 8.37115 24.5241 8.45865 25.192 8.30552L26.9712 7.80385C28.0198 7.50635 28.5433 7.3576 29.0056 7.54573C29.4693 7.73531 29.742 8.20635 30.286 9.15135L31.005 10.4011C31.5154 11.2864 31.7706 11.7282 31.721 12.2007C31.6714 12.6732 31.3302 13.0509 30.6477 13.8107L29.1441 15.4922C28.7766 15.9574 28.5156 16.7682 28.5156 17.4974C28.5156 18.2266 28.7766 19.0374 29.1427 19.5026L30.6477 21.1841C31.3302 21.9424 31.6714 22.323 31.721 22.7941C31.7706 23.2651 31.5168 23.7084 31.0064 24.5936L30.286 25.8434C29.742 26.7884 29.4693 27.2609 29.0056 27.4476C28.5433 27.6372 28.0198 27.4884 26.9712 27.1909L25.192 26.6907C24.523 26.5371 23.8212 26.6244 23.2102 26.9372L22.7202 27.2201C22.1952 27.5555 21.7927 28.0514 21.571 28.6318L21.0839 30.0857C20.7631 31.0482 20.6027 31.5295 20.222 31.8066C19.8414 32.0807 19.3339 32.0807 18.3218 32.0807H16.6958C15.6837 32.0807 15.1777 32.0807 14.7956 31.8051C14.415 31.5295 14.2545 31.0497 13.9352 30.0872" stroke="#F7F7F7" stroke-width="2.1875" stroke-linecap="round" stroke-linejoin="round"/>
<path d="M3.99424 27.3853C5.56924 25.8103 10.9242 20.5078 11.4492 19.8953C12.0049 19.2478 11.5542 18.3728 11.8226 15.6603C11.9524 14.3478 12.2338 13.3649 13.0417 12.6328C14.0042 11.7228 14.7917 11.7228 17.5042 11.6616C19.8667 11.7228 20.1467 11.4603 20.3917 12.0728C20.5667 12.5103 20.0417 12.7728 19.4117 13.4728C18.0117 14.8728 17.1892 15.5728 17.1105 16.0103C16.5417 17.9353 18.7817 19.0728 20.0067 17.8478C20.4705 17.3841 22.6142 15.2228 22.8242 15.0478C22.9817 14.9078 23.3595 14.9137 23.5417 15.1353C23.6992 15.2899 23.7167 15.3103 23.6992 16.0103C23.6847 16.6578 23.6905 17.5883 23.6934 18.5478C23.6949 19.7903 23.6292 21.1728 23.1042 21.8728C22.0542 23.4478 20.3042 23.5353 18.7292 23.6053C17.2417 23.6928 16.0167 23.5353 15.6317 23.8153C15.3167 23.9728 13.6542 25.7228 11.6417 27.7353L8.05424 31.3228C5.07924 33.6853 1.80674 30.0103 3.99424 27.3853Z" stroke="#F7F7F7" stroke-width="2.1875" stroke-linecap="round" stroke-linejoin="round"/>
</svg>
