<svg width="35" height="35" viewBox="0 0 35 35" fill="none" xmlns="http://www.w3.org/2000/svg">
<path d="M27.4832 11.4844C27.2829 14.2646 25.2205 16.4062 22.9714 16.4062C20.7224 16.4062 18.6566 14.2652 18.4597 11.4844C18.2546 8.59209 20.2624 6.5625 22.9714 6.5625C25.6805 6.5625 27.6882 8.64473 27.4832 11.4844Z" stroke="#F7F7F7" stroke-width="1.875" stroke-linecap="round" stroke-linejoin="round"/>
<path d="M22.9685 20.7812C18.5135 20.7812 14.2294 22.994 13.1562 27.3034C13.014 27.8735 13.3715 28.4375 13.9573 28.4375H31.9803C32.5661 28.4375 32.9216 27.8735 32.7815 27.3034C31.7082 22.925 27.4241 20.7812 22.9685 20.7812Z" stroke="#F7F7F7" stroke-width="1.875" stroke-miterlimit="10"/>
<path d="M13.6715 12.7107C13.5115 14.9311 11.8449 16.6797 10.0484 16.6797C8.25196 16.6797 6.58262 14.9317 6.4254 12.7107C6.26202 10.4009 7.88419 8.75 10.0484 8.75C12.2127 8.75 13.8349 10.4433 13.6715 12.7107Z" stroke="#F7F7F7" stroke-width="1.875" stroke-linecap="round" stroke-linejoin="round"/>
<path d="M14.0827 20.9155C12.8488 20.3502 11.4898 20.1328 10.0495 20.1328C6.49481 20.1328 3.07 21.8999 2.21209 25.3418C2.0993 25.7971 2.38504 26.2476 2.85262 26.2476H10.528" stroke="#F7F7F7" stroke-width="1.875" stroke-miterlimit="10" stroke-linecap="round"/>
</svg>
