<svg width="40" height="40" viewBox="0 0 40 40" fill="none" xmlns="http://www.w3.org/2000/svg">
<g clip-path="url(#clip0_759_46113)">
<path d="M25.2125 23.75L21.975 26.9875L23.75 28.75L28.75 23.75L23.75 18.75L21.975 20.5125L25.2125 23.75ZM14.7875 23.75L18.025 20.5125L16.25 18.75L11.25 23.75L16.25 28.75L18.025 26.9875L14.7875 23.75Z" fill="#F7F7F7"/>
<path d="M11.25 11.25C11.9404 11.25 12.5 10.6904 12.5 10C12.5 9.30964 11.9404 8.75 11.25 8.75C10.5596 8.75 10 9.30964 10 10C10 10.6904 10.5596 11.25 11.25 11.25Z" fill="#F7F7F7"/>
<path d="M7.5 11.25C8.19036 11.25 8.75 10.6904 8.75 10C8.75 9.30964 8.19036 8.75 7.5 8.75C6.80964 8.75 6.25 9.30964 6.25 10C6.25 10.6904 6.80964 11.25 7.5 11.25Z" fill="#F7F7F7"/>
<path d="M35 5H5C3.62125 5 2.5 6.1225 2.5 7.5V32.5C2.5 33.8788 3.62125 35 5 35H35C36.3788 35 37.5 33.8788 37.5 32.5V7.5C37.5 6.1225 36.3788 5 35 5ZM35 7.5V12.5H5V7.5H35ZM5 32.5V15H35V32.5H5Z" fill="#F7F7F7"/>
</g>
<defs>
<clipPath id="clip0_759_46113">
<rect width="40" height="40" fill="white"/>
</clipPath>
</defs>
</svg>
