<svg width="40" height="40" viewBox="0 0 40 40" fill="none" xmlns="http://www.w3.org/2000/svg">
<path d="M34.1659 25.8307H5.83594V34.1641H34.1659V25.8307ZM36.5776 24.1174L36.6126 24.2207L36.6509 24.3874L36.6676 24.5541V35.4141C36.6675 35.7166 36.5576 36.0089 36.3584 36.2366C36.1592 36.4643 35.8841 36.6121 35.5843 36.6524L35.4176 36.6641H4.58594C4.28387 36.6641 3.99203 36.5547 3.76439 36.3561C3.53674 36.1576 3.38868 35.8833 3.3476 35.5841L3.33594 35.4141V24.5807L3.33927 24.4941L3.35594 24.3507C3.37519 24.2638 3.40139 24.1785 3.43427 24.0957L8.03427 14.0641C8.12104 13.8744 8.25387 13.7095 8.42067 13.5843C8.58747 13.4592 8.78294 13.3777 8.98927 13.3474L9.16927 13.3357L13.4026 13.3341L12.0859 15.6174L11.9743 15.8341H9.96927L6.5326 23.3307H33.4526L30.0743 16.0874L31.5109 13.5924C31.6232 13.6769 31.7187 13.7791 31.7976 13.8991L31.8859 14.0574L36.5776 24.1174ZM22.2776 3.42408L22.4309 3.49908L31.0776 8.50408C31.6243 8.82075 31.8409 9.48908 31.6093 10.0591L31.5343 10.2124L26.8559 18.3307H28.7526C29.0716 18.3275 29.3797 18.4463 29.6139 18.6629C29.8481 18.8794 29.9907 19.1773 30.0124 19.4955C30.0341 19.8138 29.9334 20.1283 29.7308 20.3746C29.5282 20.621 29.239 20.7806 28.9226 20.8207L28.7526 20.8324L25.4159 20.8307V20.8357H18.6176L18.6126 20.8307H11.2526C10.9379 20.8278 10.6358 20.7062 10.4068 20.4903C10.1778 20.2744 10.0387 19.9801 10.0172 19.6661C9.99576 19.352 10.0935 19.0415 10.291 18.7964C10.4885 18.5514 10.7712 18.3898 11.0826 18.3441L11.2526 18.3324L14.2909 18.3307L13.9876 18.1557C13.7263 18.0043 13.5287 17.7634 13.4313 17.4775C13.3338 17.1917 13.3432 16.8802 13.4576 16.6007L13.5309 16.4474L20.7259 3.95408C21.0426 3.40575 21.7093 3.18741 22.2776 3.42075M22.2609 6.28741L16.3176 16.6141L19.2809 18.3307H23.9759L28.7509 10.0424L22.2609 6.28741Z" fill="#F7F7F7"/>
</svg>
