<svg width="40" height="40" viewBox="0 0 40 40" fill="none" xmlns="http://www.w3.org/2000/svg">
<path d="M11.6641 9.9974C12.1061 9.9974 12.53 9.8218 12.8426 9.50924C13.1551 9.19668 13.3307 8.77276 13.3307 8.33073C13.3307 7.8887 13.1551 7.46478 12.8426 7.15222C12.53 6.83966 12.1061 6.66406 11.6641 6.66406H8.33073C7.8887 6.66406 7.46478 6.83966 7.15222 7.15222C6.83966 7.46478 6.66406 7.8887 6.66406 8.33073V31.6641C6.66406 32.1061 6.83966 32.53 7.15222 32.8426C7.46478 33.1551 7.8887 33.3307 8.33073 33.3307H11.6641C12.1061 33.3307 12.53 33.1551 12.8426 32.8426C13.1551 32.53 13.3307 32.1061 13.3307 31.6641C13.3307 31.222 13.1551 30.7981 12.8426 30.4855C12.53 30.173 12.1061 29.9974 11.6641 29.9974H9.9974V9.9974H11.6641ZM34.6974 19.0307L29.9974 12.3641C29.7425 12.0047 29.3557 11.761 28.9216 11.686C28.4875 11.6111 28.0414 11.711 27.6807 11.9641C27.5005 12.0904 27.347 12.2511 27.2292 12.4371C27.1115 12.623 27.0317 12.8304 26.9945 13.0474C26.9573 13.2643 26.9634 13.4865 27.0126 13.701C27.0617 13.9156 27.1528 14.1183 27.2807 14.2974L30.1474 18.3307H16.6641C16.222 18.3307 15.7981 18.5063 15.4856 18.8189C15.173 19.1314 14.9974 19.5554 14.9974 19.9974C14.9974 20.4394 15.173 20.8633 15.4856 21.1759C15.7981 21.4885 16.222 21.6641 16.6641 21.6641H29.9974L26.9974 25.6641C26.8661 25.8392 26.7705 26.0384 26.7162 26.2504C26.6619 26.4624 26.6499 26.6831 26.6808 26.8998C26.7118 27.1164 26.7851 27.3249 26.8966 27.5132C27.0081 27.7015 27.1556 27.8661 27.3307 27.9974C27.6192 28.2138 27.9701 28.3307 28.3307 28.3307C28.5895 28.3307 28.8447 28.2705 29.0761 28.1548C29.3075 28.0391 29.5088 27.8711 29.6641 27.6641L34.6641 20.9974C34.8775 20.7155 34.9958 20.373 35.0018 20.0195C35.0078 19.666 34.9012 19.3197 34.6974 19.0307Z" fill="#F7F7F7"/>
</svg>
