<svg width="40" height="40" viewBox="0 0 40 40" fill="none" xmlns="http://www.w3.org/2000/svg">
<path d="M3.33594 10.0026C3.33594 9.56058 3.51153 9.13665 3.82409 8.82409C4.13665 8.51153 4.56058 8.33594 5.0026 8.33594H35.0026C35.4446 8.33594 35.8686 8.51153 36.1811 8.82409C36.4937 9.13665 36.6693 9.56058 36.6693 10.0026C36.6693 10.4446 36.4937 10.8686 36.1811 11.1811C35.8686 11.4937 35.4446 11.6693 35.0026 11.6693H5.0026C4.56058 11.6693 4.13665 11.4937 3.82409 11.1811C3.51153 10.8686 3.33594 10.4446 3.33594 10.0026ZM3.33594 20.0559C3.33594 19.6139 3.51153 19.19 3.82409 18.8774C4.13665 18.5649 4.56058 18.3893 5.0026 18.3893H35.0026C35.4446 18.3893 35.8686 18.5649 36.1811 18.8774C36.4937 19.19 36.6693 19.6139 36.6693 20.0559C36.6693 20.498 36.4937 20.9219 36.1811 21.2344C35.8686 21.547 35.4446 21.7226 35.0026 21.7226H5.0026C4.56058 21.7226 4.13665 21.547 3.82409 21.2344C3.51153 20.9219 3.33594 20.498 3.33594 20.0559ZM5.0026 28.4443C4.56058 28.4443 4.13665 28.6199 3.82409 28.9324C3.51153 29.245 3.33594 29.6689 3.33594 30.1109C3.33594 30.553 3.51153 30.9769 3.82409 31.2894C4.13665 31.602 4.56058 31.7776 5.0026 31.7776H35.0026C35.4446 31.7776 35.8686 31.602 36.1811 31.2894C36.4937 30.9769 36.6693 30.553 36.6693 30.1109C36.6693 29.6689 36.4937 29.245 36.1811 28.9324C35.8686 28.6199 35.4446 28.4443 35.0026 28.4443H5.0026Z" fill="#F7F7F7"/>
</svg>
