<svg width="40" height="40" viewBox="0 0 40 40" fill="none" xmlns="http://www.w3.org/2000/svg">
<path d="M6.66686 6.66927C6.66686 5.78522 7.01805 4.93737 7.64317 4.31225C8.26829 3.68713 9.11614 3.33594 10.0002 3.33594H20.2869C20.7248 3.33581 21.1586 3.422 21.5632 3.58959C21.9679 3.75717 22.3355 4.00286 22.6452 4.3126L32.3569 14.0259C32.982 14.6509 33.3333 15.4986 33.3335 16.3826V33.3359C33.3335 34.22 32.9823 35.0678 32.3572 35.693C31.7321 36.3181 30.8842 36.6693 30.0002 36.6693H26.5835C27.2802 35.9859 27.8069 35.1293 28.0919 34.1693H30.0002C30.2212 34.1693 30.4332 34.0815 30.5894 33.9252C30.7457 33.7689 30.8335 33.557 30.8335 33.3359V16.6693H23.3335C22.4495 16.6693 21.6016 16.3181 20.9765 15.693C20.3514 15.0678 20.0002 14.22 20.0002 13.3359V5.83594H10.0002C9.77918 5.83594 9.56722 5.92374 9.41094 6.08002C9.25466 6.2363 9.16686 6.44826 9.16686 6.66927V24.3809C8.77353 24.6565 8.41908 24.9743 8.10353 25.3343C7.81795 24.6501 7.3124 24.0806 6.66686 23.7159V6.66927ZM22.5002 7.7026V13.3359C22.5002 13.557 22.588 13.7689 22.7443 13.9252C22.9006 14.0815 23.1125 14.1693 23.3335 14.1693H28.9669L22.5002 7.7026ZM6.66686 26.5676C6.66686 25.6309 5.9452 25.1276 5.4302 24.9826C4.9152 24.8376 4.0902 24.8893 3.5802 25.6009C3.0502 26.3393 2.31353 27.1659 1.44686 27.6793C1.17276 27.8534 0.977191 28.1274 0.901562 28.4432C0.825932 28.759 0.876179 29.0919 1.04166 29.3713C1.20715 29.6507 1.47488 29.8548 1.78818 29.9403C2.10147 30.0257 2.43573 29.9859 2.7202 29.8293C3.25853 29.5126 3.74186 29.1293 4.16686 28.7259V35.4209C4.16686 35.7525 4.29856 36.0704 4.53298 36.3048C4.7674 36.5392 5.08534 36.6709 5.41686 36.6709C5.74838 36.6709 6.06633 36.5392 6.30075 36.3048C6.53517 36.0704 6.66686 35.7525 6.66686 35.4209V26.5676ZM8.33353 29.1693C8.33353 28.0642 8.77252 27.0044 9.55392 26.223C10.3353 25.4416 11.3951 25.0026 12.5002 25.0026C13.6053 25.0026 14.6651 25.4416 15.4465 26.223C16.2279 27.0044 16.6669 28.0642 16.6669 29.1693V32.5026C16.6669 33.6077 16.2279 34.6675 15.4465 35.4489C14.6651 36.2303 13.6053 36.6693 12.5002 36.6693C11.3951 36.6693 10.3353 36.2303 9.55392 35.4489C8.77252 34.6675 8.33353 33.6077 8.33353 32.5026V29.1693ZM12.5002 27.5026C12.0582 27.5026 11.6342 27.6782 11.3217 27.9908C11.0091 28.3033 10.8335 28.7272 10.8335 29.1693V32.5026C10.8335 32.9446 11.0091 33.3686 11.3217 33.6811C11.6342 33.9937 12.0582 34.1693 12.5002 34.1693C12.9422 34.1693 13.3661 33.9937 13.6787 33.6811C13.9913 33.3686 14.1669 32.9446 14.1669 32.5026V29.1693C14.1669 28.7272 13.9913 28.3033 13.6787 27.9908C13.3661 27.6782 12.9422 27.5026 12.5002 27.5026ZM22.5002 25.0026C21.3951 25.0026 20.3353 25.4416 19.5539 26.223C18.7725 27.0044 18.3335 28.0642 18.3335 29.1693V32.5026C18.3335 33.6077 18.7725 34.6675 19.5539 35.4489C20.3353 36.2303 21.3951 36.6693 22.5002 36.6693C23.6053 36.6693 24.6651 36.2303 25.4465 35.4489C26.2279 34.6675 26.6669 33.6077 26.6669 32.5026V29.1693C26.6669 28.0642 26.2279 27.0044 25.4465 26.223C24.6651 25.4416 23.6053 25.0026 22.5002 25.0026ZM20.8335 29.1693C20.8335 28.7272 21.0091 28.3033 21.3217 27.9908C21.6342 27.6782 22.0582 27.5026 22.5002 27.5026C22.9422 27.5026 23.3661 27.6782 23.6787 27.9908C23.9913 28.3033 24.1669 28.7272 24.1669 29.1693V32.5026C24.1669 32.9446 23.9913 33.3686 23.6787 33.6811C23.3661 33.9937 22.9422 34.1693 22.5002 34.1693C22.0582 34.1693 21.6342 33.9937 21.3217 33.6811C21.0091 33.3686 20.8335 32.9446 20.8335 32.5026V29.1693Z" fill="#F7F7F7"/>
</svg>
