<svg width="35" height="35" viewBox="0 0 35 35" fill="none" xmlns="http://www.w3.org/2000/svg">
<g clip-path="url(#clip0_759_57739)">
<path d="M10.2057 4.83073C10.2057 4.05718 10.513 3.31532 11.06 2.76833C11.607 2.22135 12.3488 1.91406 13.1224 1.91406H21.8724C22.6459 1.91406 23.3878 2.22135 23.9348 2.76833C24.4818 3.31532 24.7891 4.05718 24.7891 4.83073V7.7474H30.6224C31.0092 7.7474 31.3801 7.90104 31.6536 8.17453C31.9271 8.44802 32.0807 8.81896 32.0807 9.20573C32.0807 9.5925 31.9271 9.96344 31.6536 10.2369C31.3801 10.5104 31.0092 10.6641 30.6224 10.6641H29.0634L27.7991 28.3711C27.7467 29.107 27.4174 29.7957 26.8776 30.2984C26.3377 30.8012 25.6274 31.0807 24.8897 31.0807H10.1036C9.36593 31.0807 8.65562 30.8012 8.11577 30.2984C7.57592 29.7957 7.24665 29.107 7.19427 28.3711L5.93281 10.6641H4.3724C3.98562 10.6641 3.61469 10.5104 3.3412 10.2369C3.06771 9.96344 2.91406 9.5925 2.91406 9.20573C2.91406 8.81896 3.06771 8.44802 3.3412 8.17453C3.61469 7.90104 3.98562 7.7474 4.3724 7.7474H10.2057V4.83073ZM13.1224 7.7474H21.8724V4.83073H13.1224V7.7474ZM8.85531 10.6641L10.1051 28.1641H24.8911L26.1409 10.6641H8.85531ZM14.5807 13.5807C14.9675 13.5807 15.3384 13.7344 15.6119 14.0079C15.8854 14.2814 16.0391 14.6523 16.0391 15.0391V23.7891C16.0391 24.1758 15.8854 24.5468 15.6119 24.8203C15.3384 25.0938 14.9675 25.2474 14.5807 25.2474C14.194 25.2474 13.823 25.0938 13.5495 24.8203C13.276 24.5468 13.1224 24.1758 13.1224 23.7891V15.0391C13.1224 14.6523 13.276 14.2814 13.5495 14.0079C13.823 13.7344 14.194 13.5807 14.5807 13.5807ZM20.4141 13.5807C20.8008 13.5807 21.1718 13.7344 21.4453 14.0079C21.7188 14.2814 21.8724 14.6523 21.8724 15.0391V23.7891C21.8724 24.1758 21.7188 24.5468 21.4453 24.8203C21.1718 25.0938 20.8008 25.2474 20.4141 25.2474C20.0273 25.2474 19.6564 25.0938 19.3829 24.8203C19.1094 24.5468 18.9557 24.1758 18.9557 23.7891V15.0391C18.9557 14.6523 19.1094 14.2814 19.3829 14.0079C19.6564 13.7344 20.0273 13.5807 20.4141 13.5807Z" fill="#C81A01"/>
</g>
<defs>
<clipPath id="clip0_759_57739">
<rect width="35" height="35" fill="white"/>
</clipPath>
</defs>
</svg>
