<svg width="40" height="40" viewBox="0 0 40 40" fill="none" xmlns="http://www.w3.org/2000/svg">
<path d="M18.126 28.125C18.126 28.6223 18.3235 29.0992 18.6752 29.4508C19.0268 29.8025 19.5037 30 20.001 30C20.4983 30 20.9752 29.8025 21.3268 29.4508C21.6784 29.0992 21.876 28.6223 21.876 28.125C21.876 27.6277 21.6784 27.1508 21.3268 26.7992C20.9752 26.4475 20.4983 26.25 20.001 26.25C19.5037 26.25 19.0268 26.4475 18.6752 26.7992C18.3235 27.1508 18.126 27.6277 18.126 28.125ZM18.751 16.25V23.4375C18.751 23.6094 18.8916 23.75 19.0635 23.75H20.9385C21.1104 23.75 21.251 23.6094 21.251 23.4375V16.25C21.251 16.0781 21.1104 15.9375 20.9385 15.9375H19.0635C18.8916 15.9375 18.751 16.0781 18.751 16.25ZM37.333 33.4375L21.083 5.3125C20.8408 4.89453 20.4229 4.6875 20.001 4.6875C19.5791 4.6875 19.1572 4.89453 18.919 5.3125L2.66896 33.4375C2.18849 34.2734 2.79005 35.3125 3.75099 35.3125H36.251C37.2119 35.3125 37.8135 34.2734 37.333 33.4375ZM6.72755 32.3477L20.001 9.37109L33.2744 32.3477H6.72755Z" fill="#F7F7F7"/>
</svg>
