<svg width="40" height="40" viewBox="0 0 40 40" fill="none" xmlns="http://www.w3.org/2000/svg">
<path d="M35.5188 11.4637L28.536 4.48243C28.3038 4.25023 28.0282 4.06603 27.7248 3.94036C27.4215 3.81468 27.0963 3.75 26.768 3.75C26.4396 3.75 26.1145 3.81468 25.8111 3.94036C25.5078 4.06603 25.2322 4.25023 25 4.48243L5.73282 23.7496C5.49967 23.9809 5.31481 24.2563 5.18901 24.5597C5.06321 24.863 4.99896 25.1884 5.00001 25.5168V32.4996C5.00001 33.1627 5.2634 33.7985 5.73225 34.2674C6.20109 34.7362 6.83697 34.9996 7.50001 34.9996H14.4828C14.8113 35.0007 15.1366 34.9364 15.44 34.8106C15.7434 34.6848 16.0187 34.5 16.25 34.2668L29.3234 21.1949L29.8672 23.3668L24.1172 29.1152C23.8827 29.3496 23.7508 29.6675 23.7507 29.9991C23.7505 30.3306 23.8821 30.6487 24.1164 30.8832C24.3508 31.1178 24.6687 31.2496 25.0002 31.2498C25.3318 31.2499 25.6498 31.1183 25.8844 30.884L32.1344 24.634C32.2873 24.4814 32.398 24.2918 32.4557 24.0837C32.5135 23.8756 32.5164 23.6561 32.4641 23.4465L31.3859 19.1324L35.5188 14.9996C35.751 14.7675 35.9352 14.4918 36.0608 14.1885C36.1865 13.8851 36.2512 13.56 36.2512 13.2317C36.2512 12.9033 36.1865 12.5782 36.0608 12.2748C35.9352 11.9715 35.751 11.6958 35.5188 11.4637ZM7.50001 28.0168L11.9828 32.4996H7.50001V28.0168ZM15 31.9824L8.0172 24.9996L21.25 11.7668L28.2328 18.7496L15 31.9824ZM30 16.9824L23.0188 9.99962L26.7688 6.24962L33.75 13.2324L30 16.9824Z" fill="#F7F7F7"/>
</svg>
