<svg width="35" height="35" viewBox="0 0 35 35" fill="none" xmlns="http://www.w3.org/2000/svg">
<path d="M31.4431 7.75282L27.2446 3.55427C27.0416 3.35085 26.8004 3.18957 26.5349 3.0797C26.2693 2.96983 25.9847 2.91354 25.6973 2.91407C25.1358 2.91407 24.5773 3.12698 24.15 3.55427L18.9583 8.7474H5.83333C5.44656 8.7474 5.07563 8.90105 4.80214 9.17454C4.52865 9.44803 4.375 9.81896 4.375 10.2057V29.1641C4.375 29.5508 4.52865 29.9218 4.80214 30.1953C5.07563 30.4688 5.44656 30.6224 5.83333 30.6224H24.7917C25.1784 30.6224 25.5494 30.4688 25.8229 30.1953C26.0964 29.9218 26.25 29.5508 26.25 29.1641V16.0391L31.4431 10.8459C31.8704 10.4186 32.0833 9.85865 32.0833 9.29865C32.0833 8.73865 31.8704 8.18011 31.4431 7.75282ZM16.7708 21.3941L13.6033 18.2266L22.7806 9.04927L25.9481 12.2168L16.7708 21.3941ZM13.036 19.4414L15.5969 21.9614L13.125 21.8724L13.036 19.4414ZM23.3333 27.7057H7.29167V11.6641H16.0417L11.4042 16.3016C10.9769 16.7289 10.7071 17.4857 10.4869 18.1814C10.2535 18.9105 10.2083 19.7214 10.2083 20.3251V24.7891H14.6723C15.276 24.7891 16.2881 24.6432 16.9633 24.3661C17.64 24.0891 18.27 23.8601 18.6958 23.4328L23.3333 18.9557V27.7057ZM26.9792 11.1857L23.8117 8.01823L25.6973 6.13261L28.8633 9.30011L26.9792 11.1857Z" fill="#393D46"/>
</svg>
