<svg width="40" height="40" viewBox="0 0 40 40" fill="none" xmlns="http://www.w3.org/2000/svg">
<path d="M19.9974 28.3307C19.1133 28.3307 18.2655 27.9795 17.6404 27.3544C17.0153 26.7293 16.6641 25.8815 16.6641 24.9974C16.6641 23.1474 18.1474 21.6641 19.9974 21.6641C20.8815 21.6641 21.7293 22.0153 22.3544 22.6404C22.9795 23.2655 23.3307 24.1133 23.3307 24.9974C23.3307 25.8815 22.9795 26.7293 22.3544 27.3544C21.7293 27.9795 20.8815 28.3307 19.9974 28.3307ZM29.9974 33.3307V16.6641H9.9974V33.3307H29.9974ZM29.9974 13.3307C30.8815 13.3307 31.7293 13.6819 32.3544 14.307C32.9795 14.9322 33.3307 15.78 33.3307 16.6641V33.3307C33.3307 34.2148 32.9795 35.0626 32.3544 35.6878C31.7293 36.3129 30.8815 36.6641 29.9974 36.6641H9.9974C9.11334 36.6641 8.26549 36.3129 7.64037 35.6878C7.01525 35.0626 6.66406 34.2148 6.66406 33.3307V16.6641C6.66406 14.8141 8.1474 13.3307 9.9974 13.3307H11.6641V9.9974C11.6641 7.78726 12.542 5.66764 14.1048 4.10484C15.6676 2.54204 17.7873 1.66406 19.9974 1.66406C21.0917 1.66406 22.1754 1.87961 23.1864 2.2984C24.1975 2.71719 25.1161 3.33102 25.89 4.10484C26.6638 4.87866 27.2776 5.79732 27.6964 6.80837C28.1152 7.81941 28.3307 8.90305 28.3307 9.9974V13.3307H29.9974ZM19.9974 4.9974C18.6713 4.9974 17.3995 5.52418 16.4619 6.46186C15.5242 7.39954 14.9974 8.67131 14.9974 9.9974V13.3307H24.9974V9.9974C24.9974 8.67131 24.4706 7.39954 23.5329 6.46186C22.5952 5.52418 21.3235 4.9974 19.9974 4.9974Z" fill="#F7F7F7"/>
</svg>
