<svg width="40" height="40" viewBox="0 0 40 40" fill="none" xmlns="http://www.w3.org/2000/svg">
<path d="M33.75 6.25H6.25C5.58696 6.25 4.95107 6.51339 4.48223 6.98223C4.01339 7.45107 3.75 8.08696 3.75 8.75V31.25C3.75 31.913 4.01339 32.5489 4.48223 33.0178C4.95107 33.4866 5.58696 33.75 6.25 33.75H8.34219C8.57876 33.7501 8.8105 33.683 9.01047 33.5566C9.21045 33.4302 9.37044 33.2497 9.47187 33.0359C10.0797 31.7526 11.0394 30.6682 12.2393 29.9089C13.4392 29.1495 14.83 28.7464 16.25 28.7464C17.67 28.7464 19.0608 29.1495 20.2607 29.9089C21.4606 30.6682 22.4203 31.7526 23.0281 33.0359C23.1296 33.2497 23.2896 33.4302 23.4895 33.5566C23.6895 33.683 23.9212 33.7501 24.1578 33.75H33.75C34.413 33.75 35.0489 33.4866 35.5178 33.0178C35.9866 32.5489 36.25 31.913 36.25 31.25V8.75C36.25 8.08696 35.9866 7.45107 35.5178 6.98223C35.0489 6.51339 34.413 6.25 33.75 6.25ZM12.5 22.5C12.5 21.7583 12.7199 21.0333 13.132 20.4166C13.544 19.7999 14.1297 19.3193 14.8149 19.0355C15.5002 18.7516 16.2542 18.6774 16.9816 18.8221C17.709 18.9667 18.3772 19.3239 18.9017 19.8483C19.4261 20.3728 19.7833 21.041 19.9279 21.7684C20.0726 22.4958 19.9984 23.2498 19.7145 23.9351C19.4307 24.6203 18.9501 25.206 18.3334 25.618C17.7167 26.0301 16.9917 26.25 16.25 26.25C15.2554 26.25 14.3016 25.8549 13.5983 25.1517C12.8951 24.4484 12.5 23.4946 12.5 22.5ZM33.75 31.25H24.9109C23.867 29.4554 22.2935 28.0277 20.4063 27.1625C21.3525 26.32 22.0203 25.2097 22.3212 23.979C22.6221 22.7483 22.5418 21.4552 22.0911 20.2711C21.6403 19.087 20.8403 18.0679 19.7972 17.3489C18.754 16.6298 17.517 16.2447 16.25 16.2447C14.983 16.2447 13.746 16.6298 12.7028 17.3489C11.6597 18.0679 10.8597 19.087 10.4089 20.2711C9.95817 21.4552 9.87792 22.7483 10.1788 23.979C10.4797 25.2097 11.1475 26.32 12.0938 27.1625C10.2065 28.0277 8.63299 29.4554 7.58906 31.25H6.25V8.75H33.75V31.25ZM8.75 15V12.5C8.75 12.1685 8.8817 11.8505 9.11612 11.6161C9.35054 11.3817 9.66848 11.25 10 11.25H30C30.3315 11.25 30.6495 11.3817 30.8839 11.6161C31.1183 11.8505 31.25 12.1685 31.25 12.5V27.5C31.25 27.8315 31.1183 28.1495 30.8839 28.3839C30.6495 28.6183 30.3315 28.75 30 28.75H27.5C27.1685 28.75 26.8505 28.6183 26.6161 28.3839C26.3817 28.1495 26.25 27.8315 26.25 27.5C26.25 27.1685 26.3817 26.8505 26.6161 26.6161C26.8505 26.3817 27.1685 26.25 27.5 26.25H28.75V13.75H11.25V15C11.25 15.3315 11.1183 15.6495 10.8839 15.8839C10.6495 16.1183 10.3315 16.25 10 16.25C9.66848 16.25 9.35054 16.1183 9.11612 15.8839C8.8817 15.6495 8.75 15.3315 8.75 15Z" fill="#F7F7F7"/>
</svg>
